<?xml version="1.0" encoding="utf-8"?>
<!-- Generator: Adobe Illustrator 21.1.0, SVG Export Plug-In . SVG Version: 6.00 Build 0)  -->
<svg version="1.1" id="Layer_1" xmlns="http://www.w3.org/2000/svg" xmlns:xlink="http://www.w3.org/1999/xlink" x="0px" y="0px"
	 viewBox="0 0 18 18" style="enable-background:new 0 0 18 18;" xml:space="preserve">
<title>availability</title>
<g>
	<path d="M9.6,0c-0.5,0-1,0.4-1.1,0.9c0,0.6,0.4,1,0.9,1.1C13.1,2.2,16,5.3,16,9c0,3.9-3.1,7-7,7c-3.6,0-6.6-2.7-7-6.3
		C1.9,9.2,1.5,8.8,0.9,8.8C0.3,8.9-0.1,9.4,0,9.9C0.5,14.5,4.3,18,9,18c5,0,9-4,9-9C18,4.3,14.3,0.3,9.6,0z"/>
	<path d="M7.5,9.3c0,0,0,0.1,0,0.1c0,0.1,0.1,0.1,0.1,0.1c0,0.1,0.1,0.1,0.1,0.2c0,0,0.1,0,0.1,0.1C7.9,9.8,8,9.9,8,9.9c0,0,0,0,0,0
		l2.3,0.9c0.1,0,0.2,0.1,0.4,0.1c0.4,0,0.8-0.2,0.9-0.6c0.2-0.5-0.1-1.1-0.6-1.3L9.4,8.3V5.8c0-0.6-0.4-1-1-1s-1,0.4-1,1V9
		c0,0,0,0,0,0C7.4,9.1,7.4,9.2,7.5,9.3z"/>
</g>
</svg>
