<?xml version="1.0" encoding="UTF-8" standalone="no"?>
<svg width="18px" height="18px" viewBox="0 0 18 18" version="1.1" xmlns="http://www.w3.org/2000/svg" xmlns:xlink="http://www.w3.org/1999/xlink">
    <!-- Generator: Sketch Beta 39.1 (31721) - http://www.bohemiancoding.com/sketch -->
    <title>Slice</title>
    <desc>Created with Sketch Beta.</desc>
    <defs></defs>
    <g id="Page-1" stroke="none" stroke-width="1" fill="none" fill-rule="evenodd">
        <g id="Actions" transform="translate(-0.002970, 0.000000)" fill="#797E8E">
            <path d="M8,0.100006104 L8,0.0549287778 C3.50004954,0.552373066 0,4.36744635 0,9 C0,13.6325537 3.50004954,17.4476269 8,17.9450712 L8,17.8999939 C8.55228475,17.8999939 9,17.4522786 9,16.8999939 C9,16.3477091 8.55228475,15.8999939 8,15.8999939 C7.95488652,15.8999939 7.91047077,15.9029813 7.86693979,15.908769 C4.53975459,15.3672534 2,12.4802225 2,9 C2,5.51977755 4.53975459,2.63274657 7.86693979,2.09123103 C7.91047077,2.09701874 7.95488652,2.1000061 8,2.1000061 C8.55228475,2.1000061 9,1.65229085 9,1.1000061 C9,0.547721354 8.55228475,0.100006104 8,0.100006104 Z" id="Combined-Shape"></path>
            <path d="M14.6044548,9.98516807 L7.00247329,9.98516807 C6.44882258,9.98516807 6,9.54009748 6,8.98245155 C6,8.42866651 6.45576096,7.97973504 7.00247329,7.97973504 L14.6194067,7.97973504 L13.3582262,6.71855451 C12.9660363,6.3263646 12.962816,5.69371942 13.3571312,5.2994042 C13.7487164,4.90781904 14.3850465,4.90926416 14.7762815,5.30049922 L17.5986769,8.12289458 C17.6602956,8.18451329 17.7123126,8.25206764 17.7546947,8.32370071 C17.907504,8.49934612 18,8.72929874 18,8.98245155 C18,9.27001399 17.8771093,9.52930387 17.6824065,9.71214532 C17.6444656,9.77052448 17.5998664,9.82586706 17.548628,9.87710542 L14.7262327,12.6995008 C14.3349976,13.0907358 13.6986675,13.092181 13.3070824,12.7005958 C12.9127671,12.3062806 12.9159875,11.6736354 13.3081774,11.2814455 L14.6044548,9.98516807 Z" id="Combined-Shape"></path>
        </g>
    </g>
</svg>