<?xml version="1.0" encoding="UTF-8" standalone="no"?>
<svg width="18px" height="18px" viewBox="0 0 18 18" version="1.1" xmlns="http://www.w3.org/2000/svg" xmlns:xlink="http://www.w3.org/1999/xlink">
    <!-- Generator: Sketch Beta 39.1 (31721) - http://www.bohemiancoding.com/sketch -->
    <title>Slice</title>
    <desc>Created with Sketch Beta.</desc>
    <defs></defs>
    <g id="Page-1" stroke="none" stroke-width="1" fill="none" fill-rule="evenodd">
        <path d="M13.1228263,8.54674221 L6.665625,8.54674221 C6.4125,8.54674221 6.2859375,8.69546742 6.2859375,8.99291785 C6.2859375,9.29036827 6.4125,9.43909348 6.665625,9.43909348 L14.3859375,9.43909348 C14.8640625,9.43909348 15.2859375,9.26203966 15.6515625,8.90793201 C16.0171875,8.55382436 16.2,8.13597734 16.2,7.65439093 C16.2,7.17280453 16.0171875,6.74787535 15.6515625,6.3796034 C15.2859375,6.01133144 14.8640625,5.82719547 14.3859375,5.82719547 L4.9359375,5.82719547 C4.0640625,5.82719547 3.31875,6.1388102 2.7,6.76203966 C2.08125,7.38526912 1.771875,8.13597734 1.771875,9.01416431 C1.771875,9.89235127 2.08125,10.6359773 2.7,11.2450425 C3.31875,11.8541076 4.0640625,12.1586402 4.9359375,12.1586402 L11.5,12.1586402 L11.5,12.192995 C11.9432033,12.2490488 12.2859375,12.6274173 12.2859375,13.0858357 C12.2859375,13.5442541 11.9432033,13.9226227 11.5,13.9786764 L11.5,13.9858357 L4.9359375,13.9858357 C3.5578125,13.9858357 2.390625,13.5042493 1.434375,12.5410765 C0.478125,11.5779037 0,10.4022663 0,9.01416431 C0,7.62606232 0.478125,6.44334278 1.434375,5.46600567 C2.390625,4.48866856 3.5578125,4 4.9359375,4 L14.3859375,4 C15.3703125,4 16.2140625,4.3611898 16.9171875,5.08356941 C17.6203125,5.80594901 17.971875,6.66288952 17.971875,7.65439093 C17.971875,8.64589235 17.6203125,9.49575071 16.9171875,10.203966 C16.2140625,10.9121813 15.3703125,11.266289 14.3859375,11.266289 L6.75,11.266289 C6.13125,11.266289 5.596875,11.0467422 5.146875,10.6076487 C4.696875,10.1685552 4.471875,9.63739377 4.471875,9.01416431 C4.471875,8.39093484 4.696875,7.85269122 5.146875,7.39943343 C5.596875,6.94617564 6.13125,6.71954674 6.75,6.71954674 L13.5,6.71954674 L13.5,6.79297061 C13.9432033,6.84902436 14.2859375,7.22739291 14.2859375,7.6858113 C14.2859375,8.18286757 13.8829937,8.58581128 13.3859375,8.58581128 C13.2943989,8.58581128 13.2060522,8.57214528 13.1228263,8.54674221 Z" id="Combined-Shape" fill="#797E8E" transform="translate(8.985937, 8.992918) rotate(90.000000) translate(-8.985937, -8.992918) "></path>
    </g>
</svg>