<?xml version="1.0" encoding="utf-8"?>
<!-- Generator: Adobe Illustrator 21.0.2, SVG Export Plug-In . SVG Version: 6.00 Build 0)  -->
<svg version="1.1" id="Layer_1" xmlns="http://www.w3.org/2000/svg" xmlns:xlink="http://www.w3.org/1999/xlink" x="0px" y="0px"
	 viewBox="0 0 18 18" style="enable-background:new 0 0 18 18;" xml:space="preserve">
<path d="M6.9,15c0,1.1,0.9,2,2,2s2-0.9,2-2C10.9,15,7,15,6.9,15z"/>
<path d="M14.6,10V8.4c-0.3,0.1-0.7,0.1-1.1,0.1c-0.3,0-0.6,0-0.8-0.1V10c0,0.3,0.1,0.6,0.2,0.9l0.6,1.1H4.6l0.6-1.1
	c0.1-0.3,0.2-0.6,0.2-0.9V7.3C5.3,4.9,6.9,3,9,3c0.1,0,0.1,0,0.2,0c0.2-0.7,0.5-1.4,1-1.9C9.8,1.1,9.4,1,9,1C8.9,1,8.9,1,8.8,1
	c-3,0.1-5.5,2.9-5.5,6.2V10l-1.2,2.6C1.8,13.2,2.3,14,3.1,14h12c0.7,0,1.1-0.8,0.8-1.4L14.6,10z"/>
<circle cx="13.6" cy="4" r="2.5"/>
</svg>
