<?xml version="1.0" encoding="utf-8"?>
<!-- Generator: Adobe Illustrator 21.0.2, SVG Export Plug-In . SVG Version: 6.00 Build 0)  -->
<svg version="1.1" id="Layer_1" xmlns="http://www.w3.org/2000/svg" xmlns:xlink="http://www.w3.org/1999/xlink" x="0px" y="0px"
	 viewBox="0 0 18 18" style="enable-background:new 0 0 18 18;" xml:space="preserve">
<style type="text/css">
	.st0{fill-rule:evenodd;clip-rule:evenodd;}
</style>
<path class="st0" d="M13.1,13.8l-3.8-3.2c-0.2-0.2-0.5-0.2-0.7,0l-3.8,3.2V3.5C4.9,3.2,5.1,3,5.4,3h7.2c0.3,0,0.5,0.2,0.5,0.5V13.8z
	 M14.2,1H3.8c-0.6,0-1,0.4-1,1v14c0,0.6,0.5,1,1,1c0.2,0,0.4-0.1,0.6-0.2l4.2-3.5c0.2-0.2,0.5-0.2,0.7,0l4.2,3.5
	c0.2,0.1,0.4,0.2,0.6,0.2c0.5,0,1-0.4,1-1V2C15.2,1.4,14.7,1,14.2,1z"/>
</svg>
