<?xml version="1.0" encoding="utf-8"?>
<!-- Generator: Adobe Illustrator 21.0.2, SVG Export Plug-In . SVG Version: 6.00 Build 0)  -->
<svg version="1.1" id="Layer_1" xmlns="http://www.w3.org/2000/svg" xmlns:xlink="http://www.w3.org/1999/xlink" x="0px" y="0px"
	 viewBox="0 0 18 18" style="enable-background:new 0 0 18 18;" xml:space="preserve">
<style type="text/css">
	.st0{fill-rule:evenodd;clip-rule:evenodd;}
</style>
<path class="st0" d="M2,2v4h4V2H2z M0,1c0-0.6,0.5-1,1-1h6c0.6,0,1,0.5,1,1v6c0,0.6-0.5,1-1,1H1C0.4,8,0,7.5,0,7V1z"/>
<path class="st0" d="M2,12v4h4v-4H2z M0,11c0-0.6,0.5-1,1-1h6c0.6,0,1,0.5,1,1v6c0,0.6-0.5,1-1,1H1c-0.6,0-1-0.5-1-1V11z"/>
<path class="st0" d="M12,2v4h4V2H12z M10,1c0-0.6,0.5-1,1-1h6c0.6,0,1,0.5,1,1v6c0,0.6-0.5,1-1,1h-6c-0.6,0-1-0.5-1-1V1z"/>
<path class="st0" d="M13,13h-2c-0.5,0-1,0.4-1,1c0,0.6,0.4,1,1,1h2v2c0,0.5,0.4,1,1,1c0.6,0,1-0.4,1-1v-2h2c0.5,0,1-0.4,1-1
	c0-0.6-0.4-1-1-1h-2v-2c0-0.5-0.4-1-1-1c-0.6,0-1,0.4-1,1V13z"/>
</svg>
