<?xml version="1.0" encoding="utf-8"?>
<!-- Generator: Adobe Illustrator 21.0.2, SVG Export Plug-In . SVG Version: 6.00 Build 0)  -->
<svg version="1.1" id="Layer_1" xmlns="http://www.w3.org/2000/svg" xmlns:xlink="http://www.w3.org/1999/xlink" x="0px" y="0px"
	 viewBox="0 0 18 18" style="enable-background:new 0 0 18 18;" xml:space="preserve">
<path d="M15,3h-1V2c0-0.6-0.4-1-1-1c-0.6,0-1,0.5-1,1v1H6V2c0-0.6-0.4-1-1-1C4.4,1,4,1.5,4,2v1H3C1.9,3,1,3.9,1,5v10
	c0,1.1,0.9,2,2,2h12c1.1,0,2-0.9,2-2V5C17,3.9,16.1,3,15,3z M15,5L15,5l0,2H3l0-2H15z M3,15l0-6h12l0,6L3,15z"/>
</svg>
