<?xml version="1.0" encoding="utf-8"?>
<!-- Generator: Adobe Illustrator 21.0.2, SVG Export Plug-In . SVG Version: 6.00 Build 0)  -->
<svg version="1.1" id="Layer_1" xmlns="http://www.w3.org/2000/svg" xmlns:xlink="http://www.w3.org/1999/xlink" x="0px" y="0px"
	 viewBox="0 0 18 18" style="enable-background:new 0 0 18 18;" xml:space="preserve">
<style type="text/css">
	.st0{fill-rule:evenodd;clip-rule:evenodd;}
</style>
<g>
	<path d="M7.5,5h-3v2v2c0,0.6,0.4,1,1,1s1-0.4,1-1V7h1c0.6,0,1-0.4,1-1C8.5,5.4,8.1,5,7.5,5z"/>
	<path d="M12.5,5h-3v2v2c0,0.6,0.4,1,1,1s1-0.4,1-1V7h1c0.6,0,1-0.4,1-1C13.5,5.4,13.1,5,12.5,5z"/>
</g>
<path class="st0" d="M14,15v2.3c0,0.6-0.4,0.8-0.9,0.6l-6-2.9H2c-1.1,0-2-0.9-2-2V2c0-1.1,0.9-2,2-2h14c1.1,0,2,0.9,2,2v11
	c0,1.1-0.9,2-2,2H14z M12,13h3c0.6,0,1-0.4,1-1V3c0-0.6-0.5-1-1-1H3C2.4,2,2,2.4,2,3v9c0,0.6,0.5,1,1,1h5l4,2V13z"/>
</svg>
