<?xml version="1.0" encoding="utf-8"?>
<!-- Generator: Adobe Illustrator 21.0.2, SVG Export Plug-In . SVG Version: 6.00 Build 0)  -->
<svg version="1.1" id="Layer_1" xmlns="http://www.w3.org/2000/svg" xmlns:xlink="http://www.w3.org/1999/xlink" x="0px" y="0px"
	 viewBox="0 0 18 18" style="enable-background:new 0 0 18 18;" xml:space="preserve">
<style type="text/css">
	.st0{fill-rule:evenodd;clip-rule:evenodd;}
</style>
<path class="st0" d="M13.7,5.5c-0.4-0.4-1-0.4-1.4,0l-5,4.9L5.6,8.7c-0.4-0.4-1-0.4-1.4,0c-0.4,0.4-0.4,1,0,1.4l2.4,2.4c0,0,0,0,0,0
	c0.4,0.4,1,0.4,1.4,0l0,0c0,0,0,0,0,0s0,0,0,0l5.7-5.6C14.1,6.5,14.1,5.9,13.7,5.5z"/>
</svg>
