<?xml version="1.0" encoding="utf-8"?>
<!-- Generator: Adobe Illustrator 21.0.2, SVG Export Plug-In . SVG Version: 6.00 Build 0)  -->
<svg version="1.1" id="Layer_1" xmlns="http://www.w3.org/2000/svg" xmlns:xlink="http://www.w3.org/1999/xlink" x="0px" y="0px"
	 viewBox="0 0 18 18" style="enable-background:new 0 0 18 18;" xml:space="preserve">
<style type="text/css">
	.st0{fill:#8D9095;}
</style>
<path class="st0" d="M16,2.3H2c-1.1,0-2,0.9-2,2v10c0,1.1,0.9,2,2,2h14c1.1,0,2-0.9,2-2v-10C18,3.2,17.1,2.3,16,2.3z M14.5,4.3L9,9
	L3.4,4.3H14.5z M15,14.3H3c-0.6,0-1-0.4-1-1V5.7l6.3,5.4c0.2,0.2,0.4,0.2,0.7,0.2c0.2,0,0.5-0.1,0.7-0.2L16,5.7v7.6
	C16,13.8,15.6,14.3,15,14.3z"/>
</svg>
