<?xml version="1.0" encoding="utf-8"?>
<!-- Generator: Adobe Illustrator 21.0.2, SVG Export Plug-In . SVG Version: 6.00 Build 0)  -->
<svg version="1.1" id="Layer_1" xmlns="http://www.w3.org/2000/svg" xmlns:xlink="http://www.w3.org/1999/xlink" x="0px" y="0px"
	 viewBox="0 0 18 18" style="enable-background:new 0 0 18 18;" xml:space="preserve">
<path d="M1,13c-0.6,0-1-0.4-1-1V2c0-0.6,0.4-1,1-1h10c0.6,0,1,0.4,1,1s-0.4,1-1,1H2v9C2,12.6,1.6,13,1,13z"/>
<path d="M16,7v8H6V7H16 M17,5H5C4.4,5,4,5.4,4,6v10c0,0.6,0.4,1,1,1h12c0.6,0,1-0.4,1-1V6C18,5.4,17.6,5,17,5L17,5z"/>
</svg>
