<?xml version="1.0" encoding="utf-8"?>
<!-- Generator: Adobe Illustrator 21.0.2, SVG Export Plug-In . SVG Version: 6.00 Build 0)  -->
<svg version="1.1" id="Layer_1" xmlns="http://www.w3.org/2000/svg" xmlns:xlink="http://www.w3.org/1999/xlink" x="0px" y="0px"
	 viewBox="0 0 18 18" style="enable-background:new 0 0 18 18;" xml:space="preserve">
<style type="text/css">
	.st0{fill-rule:evenodd;clip-rule:evenodd;}
</style>
<path class="st0" d="M9.7,0.4l5,5c0.4,0.4,0.4,1,0,1.4c-0.4,0.4-1,0.4-1.4,0L10,3.5V9c0,0.6-0.4,1-1,1S8,9.6,8,9V3.3L4.7,6.7
	c-0.4,0.4-1,0.4-1.4,0C3.1,6.5,3,6.2,3,6c0-0.3,0.1-0.5,0.3-0.7l5-5C8.7-0.1,9.3-0.1,9.7,0.4L9.7,0.4z"/>
<circle class="st0" cx="9" cy="17" r="1"/>
<circle class="st0" cx="9" cy="13" r="1"/>
</svg>
