<?xml version="1.0" encoding="utf-8"?>
<!-- Generator: Adobe Illustrator 21.0.2, SVG Export Plug-In . SVG Version: 6.00 Build 0)  -->
<svg version="1.1" id="Layer_1" xmlns="http://www.w3.org/2000/svg" xmlns:xlink="http://www.w3.org/1999/xlink" x="0px" y="0px"
	 viewBox="0 0 18 18" style="enable-background:new 0 0 18 18;" xml:space="preserve">
<path d="M8.4,18C3.8,18,0,14.2,0,9.6c0-4.3,3.2-7.9,7.5-8.3c0.6,0,1,0.3,1.1,0.9c0.1,0.5-0.3,1-0.9,1.1C4.5,3.6,2,6.3,2,9.6
	C2,13.1,4.9,16,8.4,16c3.3,0,6.1-2.6,6.4-5.9c0-0.6,0.5-1,1.1-0.9c0.6,0,1,0.5,0.9,1.1C16.5,14.6,12.8,18,8.4,18z"/>
<path d="M17,6.9h-4.9c-0.6,0-1-0.4-1-1V1c0-0.6,0.4-1,1-1C15.3,0,18,2.7,18,5.9C18,6.5,17.6,6.9,17,6.9z M13.1,4.9h2.8
	c-0.4-1.4-1.4-2.4-2.8-2.8V4.9z"/>
</svg>
