<?xml version="1.0" encoding="UTF-8" standalone="no"?>
<svg
   xmlns:dc="http://purl.org/dc/elements/1.1/"
   xmlns:cc="http://creativecommons.org/ns#"
   xmlns:rdf="http://www.w3.org/1999/02/22-rdf-syntax-ns#"
   xmlns:svg="http://www.w3.org/2000/svg"
   xmlns="http://www.w3.org/2000/svg"
   xml:space="preserve"
   style="enable-background:new 0 0 18 18;"
   viewBox="0 0 18 18"
   y="0px"
   x="0px"
   id="Layer_1"
   version="1.1"><metadata
     id="metadata5432"><rdf:RDF><cc:Work
         rdf:about=""><dc:format>image/svg+xml</dc:format><dc:type
           rdf:resource="http://purl.org/dc/dcmitype/StillImage" /><dc:title></dc:title></cc:Work></rdf:RDF></metadata><defs
     id="defs5430" /><path
     id="path5425"
     d="M15,3h-1V2c0-0.6-0.4-1-1-1c-0.6,0-1,0.5-1,1v1H6V2c0-0.6-0.4-1-1-1C4.4,1,4,1.5,4,2v1H3C1.9,3,1,3.9,1,5v10  c0,1.1,0.9,2,2,2h12c1.1,0,2-0.9,2-2V5C17,3.9,16.1,3,15,3z M15,5L15,5l0,2H3l0-2H15z M3,15l0-6h12l0,6L3,15z" /><path
     id="path5436"
     d="m 5,12 h 8"
     style="fill:none;stroke:#000000;stroke-width:1.00000012px;stroke-linecap:butt;stroke-linejoin:miter;stroke-opacity:1" /><path
     id="path6291"
     d="M 11.5,10.5 13,12 11.5,13.5"
     style="fill:none;stroke:#000000;stroke-width:1px;stroke-linecap:butt;stroke-linejoin:miter;stroke-opacity:1" /><path
     id="path6293"
     d="M 6.5,10.5 5,12 6.5,13.5"
     style="fill:none;stroke:#000000;stroke-width:1px;stroke-linecap:butt;stroke-linejoin:miter;stroke-opacity:1" /></svg>