<?xml version="1.0" encoding="UTF-8" standalone="no"?>
<svg width="18px" height="18px" viewBox="0 0 18 18" version="1.1" xmlns="http://www.w3.org/2000/svg" xmlns:xlink="http://www.w3.org/1999/xlink">
    <!-- Generator: Sketch Beta 39.1 (31721) - http://www.bohemiancoding.com/sketch -->
    <title>Slice</title>
    <desc>Created with Sketch Beta.</desc>
    <defs></defs>
    <g id="Page-1" stroke="none" stroke-width="1" fill="none" fill-rule="evenodd">
        <g id="Group-27" fill="#797E8E">
            <path d="M13,6 C13.5522847,6 14,6.44771525 14,7 C14,7.55228475 13.5522847,8 13,8 L5,8 C4.44771525,8 4,7.55228475 4,7 C4,6.44771525 4.44771525,6 5,6 L13,6 Z M9,10 C9.55228475,10 10,10.4477153 10,11 C10,11.5522847 9.55228475,12 9,12 L5,12 C4.44771525,12 4,11.5522847 4,11 C4,10.4477153 4.44771525,10 5,10 L9,10 Z M0,1.99508929 C0,0.893231902 0.892622799,0 1.99508929,0 L16.0049107,0 C17.1067681,0 18,0.892622799 18,1.99508929 L18,16.0049107 C18,17.1067681 17.1073772,18 16.0049107,18 L1.99508929,18 C0.893231902,18 0,17.1073772 0,16.0049107 L0,1.99508929 Z M2,3.00684547 C2,2.45078007 2.44994876,2 3.00684547,2 L14.9931545,2 C15.5492199,2 16,2.44994876 16,3.00684547 L16,14.9931545 C16,15.5492199 15.5500512,16 14.9931545,16 L3.00684547,16 C2.45078007,16 2,15.5500512 2,14.9931545 L2,3.00684547 Z" id="Combined-Shape"></path>
        </g>
    </g>
</svg>