<?xml version="1.0" encoding="utf-8"?>
<!-- Generator: Adobe Illustrator 21.0.2, SVG Export Plug-In . SVG Version: 6.00 Build 0)  -->
<svg version="1.1" id="Layer_1" xmlns="http://www.w3.org/2000/svg" xmlns:xlink="http://www.w3.org/1999/xlink" x="0px" y="0px"
	 viewBox="0 0 18 18" style="enable-background:new 0 0 18 18;" xml:space="preserve">
<style type="text/css">
	.st0{fill-rule:evenodd;clip-rule:evenodd;}
</style>
<path class="st0" d="M1,10h13.6l-5.3,5.3c-0.4,0.4-0.4,1,0,1.4c0.4,0.4,1,0.4,1.4,0l7.1-7c0.4-0.4,0.4-1,0-1.4l-7-7
	C10.5,1.1,10.3,1,10,1C9.7,1,9.5,1.1,9.3,1.3c-0.4,0.4-0.4,1,0,1.4L14.6,8H1C0.4,8,0,8.4,0,9C0,9.5,0.4,10,1,10"/>
</svg>
