<?xml version="1.0" encoding="utf-8"?>
<!-- Generator: Adobe Illustrator 21.0.2, SVG Export Plug-In . SVG Version: 6.00 Build 0)  -->
<svg version="1.1" id="Layer_1" xmlns="http://www.w3.org/2000/svg" xmlns:xlink="http://www.w3.org/1999/xlink" x="0px" y="0px"
	 viewBox="0 0 18 18" style="enable-background:new 0 0 18 18;" xml:space="preserve">
<style type="text/css">
	.st0{fill-rule:evenodd;clip-rule:evenodd;}
</style>
<path class="st0" d="M0,9c0-0.6,0.4-1,1-1h7c0.6,0,1,0.4,1,1c0,0.6-0.4,1-1,1H1C0.4,10,0,9.6,0,9z M0,3c0-0.6,0.4-1,1-1h16
	c0.5,0,1,0.4,1,1c0,0.6-0.4,1-1,1H1C0.4,4,0,3.6,0,3z M0,15c0-0.6,0.4-1,1-1h2c0.6,0,1,0.4,1,1c0,0.6-0.4,1-1,1H1
	C0.5,16,0,15.6,0,15z"/>
<path d="M17,11h-2V9c0-0.6-0.4-1-1-1s-1,0.4-1,1v2h-2c-0.6,0-1,0.4-1,1s0.4,1,1,1h2v2c0,0.6,0.4,1,1,1s1-0.4,1-1v-2h2
	c0.6,0,1-0.4,1-1S17.6,11,17,11z"/>
</svg>
