<?xml version="1.0" encoding="UTF-8"?>
<svg width="70px" height="30px" viewBox="0 0 70 30" version="1.1" xmlns="http://www.w3.org/2000/svg" xmlns:xlink="http://www.w3.org/1999/xlink">
    <!-- Generator: Sketch 47.1 (45422) - http://www.bohemiancoding.com/sketch -->
    <title>Group 14</title>
    <desc>Created with Sketch.</desc>
    <defs></defs>
    <g id="Week-view" stroke="none" stroke-width="1" fill="none" fill-rule="evenodd">
        <g id="Availability---no-resources" transform="translate(-1063.000000, -447.000000)">
            <g id="Group-12" transform="translate(988.000000, 447.000000)">
                <g id="Group-14" transform="translate(75.000000, 0.000000)">
                    <path d="M14.7058824,0 C6.58389585,0 0,6.58389585 0,14.7058824 C0,22.8278689 6.58389585,29.4117647 14.7058824,29.4117647 C22.8278689,29.4117647 29.4117647,22.8278689 29.4117647,14.7058824 C29.4117647,6.58389585 22.8278689,0 14.7058824,0 M14.7058824,3.37512054 C20.9537126,3.37512054 26.0366442,8.45805207 26.0366442,14.7058824 C26.0366442,20.9537126 20.9537126,26.0366442 14.7058824,26.0366442 C8.45805207,26.0366442 3.37512054,20.9537126 3.37512054,14.7058824 C3.37512054,8.45805207 8.45805207,3.37512054 14.7058824,3.37512054" id="Fill-1" fill="#E0E2E7"></path>
                    <path d="M54.7058824,0 C46.5838959,0 40,6.58389585 40,14.7058824 C40,22.8278689 46.5838959,29.4117647 54.7058824,29.4117647 C62.8278689,29.4117647 69.4117647,22.8278689 69.4117647,14.7058824 C69.4117647,6.58389585 62.8278689,0 54.7058824,0 M54.7058824,3.37512054 C60.9537126,3.37512054 66.0366442,8.45805207 66.0366442,14.7058824 C66.0366442,20.9537126 60.9537126,26.0366442 54.7058824,26.0366442 C48.4580521,26.0366442 43.3751205,20.9537126 43.3751205,14.7058824 C43.3751205,8.45805207 48.4580521,3.37512054 54.7058824,3.37512054" id="Fill-3" fill="#E0E2E7"></path>
                    <path d="M27,10.6806723 C27,10.6806723 29.8361345,9 34.0903361,9 C38.3445378,9 42.1260504,10.6806723 42.1260504,10.6806723" id="Stroke-5" stroke="#E0E2E7" stroke-width="4"></path>
                </g>
            </g>
        </g>
    </g>
</svg>