<?xml version="1.0" encoding="utf-8"?>
<!-- Generator: Adobe Illustrator 21.0.2, SVG Export Plug-In . SVG Version: 6.00 Build 0)  -->
<svg version="1.1" id="Layer_1" xmlns="http://www.w3.org/2000/svg" xmlns:xlink="http://www.w3.org/1999/xlink" x="0px" y="0px"
	 viewBox="0 0 18 18" style="enable-background:new 0 0 18 18;" xml:space="preserve">
<style type="text/css">
	.st0{fill:none;stroke:#A2007E;stroke-width:2;stroke-miterlimit:10;}
	.st1{fill:#A2007E;}
	.st2{fill:none;stroke:#A2007E;stroke-miterlimit:10;}
	.st3{stroke:#000000;stroke-width:0.5;stroke-miterlimit:10;}
</style>
<g id="XMLID_1_">
	<path d="M9,11.1c-0.5,0-0.9-0.4-0.9-0.9V9.7c0-0.5,0.2-1.4,1.6-1.4c0.5,0,0.8-0.2,0.8-0.8c0-0.2,0-0.7-0.3-1C10.1,6.1,9.6,6,9,6
		C7.7,6,7.7,6.7,7.7,6.8c0,0.5-0.4,0.9-0.9,0.9S5.9,7.3,5.9,6.8c0-0.7,0.6-2.6,3.1-2.6c1.4,0,2.3,0.6,2.7,1.1l0,0
		c0.6,0.6,0.8,1.5,0.7,2.4C12.2,9.3,11,10,9.9,10v0.2C9.9,10.7,9.5,11.1,9,11.1z"/>
</g>
<g>
	<path d="M9,2c3.9,0,7,3.1,7,7s-3.1,7-7,7s-7-3.1-7-7S5.1,2,9,2 M9,0C4,0,0,4,0,9s4,9,9,9c5,0,9-4,9-9S14,0,9,0L9,0z"/>
</g>
<g id="XMLID_2_">
	<path d="M9,14.2c-0.3,0-0.5-0.1-0.7-0.3c-0.2-0.2-0.3-0.5-0.3-0.7c0-0.3,0.1-0.6,0.3-0.7c0.4-0.4,1.1-0.4,1.5,0
		c0.2,0.2,0.3,0.5,0.3,0.7c0,0.3-0.1,0.6-0.3,0.7C9.5,14.1,9.3,14.2,9,14.2z"/>
</g>
</svg>
