<?xml version="1.0" encoding="utf-8"?>
<!-- Generator: Adobe Illustrator 21.0.2, SVG Export Plug-In . SVG Version: 6.00 Build 0)  -->
<svg version="1.1" id="Layer_1" xmlns="http://www.w3.org/2000/svg" xmlns:xlink="http://www.w3.org/1999/xlink" x="0px" y="0px"
	 viewBox="0 0 18 18" style="enable-background:new 0 0 18 18;" xml:space="preserve">
<style type="text/css">
	.st0{fill-rule:evenodd;clip-rule:evenodd;}
</style>
<path d="M2.1,8.9c0.7-1.4,3.5-4.8,7.1-4.8c0.6,0,1.2,0.1,1.7,0.3l1.5-1.5c-1-0.5-2.1-0.8-3.3-0.8C3.7,2.1,0,8,0,8.9
	c0,0.4,0.9,2.2,2.6,3.9L4,11.4C3.1,10.4,2.4,9.5,2.1,8.9z"/>
<path d="M15.7,5.3l-1.4,1.4c0.8,0.8,1.4,1.7,1.6,2.2c-0.7,1.4-3.4,5.1-6.7,5.1c-0.7,0-1.3-0.1-1.9-0.4l-1.4,1.4
	C6.9,15.6,8,16,9.2,16c5.2,0,8.8-6.4,8.8-7.1C18,8.5,17.2,6.9,15.7,5.3z"/>
<path class="st0" d="M2.6,15.5L2.6,15.5c-0.4-0.4-0.4-1,0-1.4L13.9,2.8c0.4-0.4,1-0.4,1.4,0l0,0c0.4,0.4,0.4,1,0,1.4L4,15.5
	C3.6,15.9,3,15.9,2.6,15.5z"/>
</svg>
