<?xml version="1.0" encoding="utf-8"?>
<!-- Generator: Adobe Illustrator 21.0.2, SVG Export Plug-In . SVG Version: 6.00 Build 0)  -->
<svg version="1.1" id="Layer_1" xmlns="http://www.w3.org/2000/svg" xmlns:xlink="http://www.w3.org/1999/xlink" x="0px" y="0px"
	 viewBox="0 0 18 18" style="enable-background:new 0 0 18 18;" xml:space="preserve">
<style type="text/css">
	.st0{fill-rule:evenodd;clip-rule:evenodd;}
</style>
<path class="st0" d="M1,13c-0.5,0-1,0.4-1,1v0c0,0.5,0.4,1,1,1h0c0.5,0,1-0.4,1-1v0C2,13.4,1.6,13,1,13L1,13z M17,13H5
	c-0.5,0-1,0.4-1,1v0c0,0.5,0.4,1,1,1h12c0.5,0,1-0.4,1-1v0C18,13.4,17.5,13,17,13z M1,8C0.4,8,0,8.4,0,9v0c0,0.5,0.4,1,1,1h0
	c0.5,0,1-0.4,1-1v0C2,8.4,1.6,8,1,8L1,8z M11,8H5C4.4,8,4,8.4,4,9v0c0,0.5,0.4,1,1,1h6c0.5,0,1-0.4,1-1v0C12,8.4,11.5,8,11,8z M1,3
	C0.4,3,0,3.4,0,4v0c0,0.5,0.4,1,1,1h0c0.5,0,1-0.4,1-1v0C2,3.4,1.6,3,1,3L1,3z M17,3H5C4.3,3,4,3.4,4,4v0c0,0.5,0.4,1,1,1h12
	C17.4,5,18,4.6,18,4v0C18,3.4,17.4,3,17,3z"/>
</svg>
