<?xml version="1.0" encoding="utf-8"?>
<!-- Generator: Adobe Illustrator 21.0.2, SVG Export Plug-In . SVG Version: 6.00 Build 0)  -->
<svg version="1.1" id="Layer_1" xmlns="http://www.w3.org/2000/svg" xmlns:xlink="http://www.w3.org/1999/xlink" x="0px" y="0px"
	 viewBox="0 0 18 17.6" style="enable-background:new 0 0 18 17.6;" xml:space="preserve">
<style type="text/css">
	.st0{fill:#8D9095;}
</style>
<path class="st0" d="M17,1.5L13,0.1C12.7,0,12.3,0,12,0c-0.3,0-0.7,0-0.9,0.1L6.9,1.5C6.7,1.6,6.3,1.6,6,1.6c-0.3,0-0.7,0-1-0.1
	L0.9,0.1c-0.1,0-0.2,0-0.3,0C0.3,0.1,0,0.4,0,0.8v14c0,0.6,0.4,1.1,1,1.3l4,1.4c0.3,0.1,0.6,0.1,1,0.1c0.3,0,0.7,0,0.9-0.1l4.3-1.4
	c0.3-0.1,0.6-0.1,0.9-0.1c0.4,0,0.7,0,1,0.1l4,1.4c0.1,0,0.2,0.1,0.3,0.1c0.4,0,0.7-0.3,0.7-0.7v-14C18,2.3,17.6,1.7,17,1.5z
	 M2,14.4V2.6l2.4,0.8C4.6,3.5,4.8,3.5,5,3.5v11.8L2,14.4z M7,15.4V3.5c0.2,0,0.4-0.1,0.5-0.1L11,2.3v11.9c-0.1,0-0.3,0.1-0.4,0.1
	L7,15.4z M16,15l-2.3-0.8c-0.2-0.1-0.5-0.1-0.7-0.2V2.3l3,1V15z"/>
</svg>
