<?xml version="1.0" encoding="UTF-8"?>
<svg width="11px" height="14px" viewBox="0 0 11 14" version="1.1" xmlns="http://www.w3.org/2000/svg" xmlns:xlink="http://www.w3.org/1999/xlink">
    <!-- Generator: Sketch 53.2 (72643) - https://sketchapp.com -->
    <title>icon/lock</title>
    <desc>Created with Sketch.</desc>
    <g id="Specs" stroke="none" stroke-width="1" fill="none" fill-rule="evenodd">
        <g id="Inline-edit" transform="translate(-860.000000, -816.000000)" fill="#94A1B7">
            <path d="M869.428571,818.955556 C869.428571,817.382114 868.041149,816.0487 866.377289,816.001304 C866.346855,816.000437 865.530613,816 865.5,816 C865.471911,816 864.65818,816.000368 864.630241,816.001098 C862.963039,816.044679 861.571429,817.379741 861.571429,818.955556 L861.571429,821.444444 L863.142857,821.444444 L863.142857,818.955556 C863.142857,818.251966 863.831925,817.609931 864.614241,817.558828 C864.647436,817.55666 865.466514,817.555556 865.5,817.555556 C865.541427,817.555556 866.368382,817.557246 866.409348,817.56055 C867.181874,817.622859 867.857143,818.259046 867.857143,818.955556 L867.857143,821.444444 L861.571429,821.444444 C860.707143,821.444444 860,822.144444 860,823 L860,828.444444 C860,829.3 860.707143,830 861.571429,830 L869.428571,830 C870.292857,830 871,829.3 871,828.444444 L871,823 C871,822.144444 870.292857,821.444444 869.428571,821.444444 L869.428571,818.955556 Z" id="icon/lock"></path>
        </g>
    </g>
</svg>