<?xml version="1.0" encoding="utf-8"?>
<!-- Generator: Adobe Illustrator 21.0.2, SVG Export Plug-In . SVG Version: 6.00 Build 0)  -->
<svg version="1.1" id="Layer_1" xmlns="http://www.w3.org/2000/svg" xmlns:xlink="http://www.w3.org/1999/xlink" x="0px" y="0px"
	 viewBox="0 0 18 18" style="enable-background:new 0 0 18 18;" xml:space="preserve">
<style type="text/css">
	.st0{fill-rule:evenodd;clip-rule:evenodd;}
</style>
<path class="st0" d="M15.7,8.2l-3-3c-0.4-0.4-1-0.4-1.4,0c-0.4,0.4-0.4,1,0,1.4l1.3,1.3H7c-0.6,0-1,0.4-1,1s0.4,1,1,1h5.7l-1.4,1.4
	c-0.4,0.4-0.4,1,0,1.4c0.2,0.2,0.5,0.3,0.7,0.3s0.5-0.1,0.7-0.3l3-3C16.1,9.3,16.1,8.7,15.7,8.2L15.7,8.2z"/>
<g>
	<path d="M8.5,16.9H2.7c-0.6,0-1-0.4-1-1v-14c0-0.6,0.4-1,1-1h6c0.6,0,1,0.4,1,1s-0.4,1-1,1h-5v12h4.8c0.6,0,1,0.4,1,1
		S9.1,16.9,8.5,16.9z"/>
</g>
</svg>
