<?xml version="1.0" encoding="UTF-8"?>
<svg width="18px" height="18px" viewBox="0 0 18 18" version="1.1" xmlns="http://www.w3.org/2000/svg" xmlns:xlink="http://www.w3.org/1999/xlink">
    <g id="Symbols">
        <path d="M9.38500743,15.383742 C10.204749,14.794821 11.0108787,14.159294 11.758022,13.4915762 C12.4225607,12.8976817 13.0073675,12.3067398 13.4906116,11.7310497 C14.4926514,10.537317 15,9.21759591 15,8 C15,4.67652318 12.3896043,2 9,2 C5.62792813,2 3,4.66798547 3,8 C3,9.21368006 3.50961126,10.5363837 4.51459199,11.7266458 C4.998825,12.3001535 5.58258187,12.888391 6.24399217,13.4787725 C7.02327939,14.1743722 7.86583421,14.8346438 8.70875915,15.4339777 C8.81250296,15.5077413 8.91352458,15.5786257 9.01148934,15.6465075 C9.14746035,15.552206 9.27786096,15.4607184 9.38500743,15.383742 Z M1,8 C1,3.63110352 4.45647321,0 9,0 C13.6043527,0 17,3.68432617 17,8 C17,9.6376271 16.3642509,11.4184323 15.0224609,13.0169104 C12.828203,15.6309358 9.47013284,17.7467724 9.29010882,17.8728774 C9,18.0760956 8.74874442,17.8728774 8.74874442,17.8728774 C8.74874442,17.8728774 5.25905768,15.7085029 2.9864502,13.0169104 C1.63498673,11.4162869 1,9.62921865 1,8 Z" id="Combined-Shape" fill="#8D9095" fill-rule="nonzero"></path>
        <path d="M9,11 C7.34314575,11 6,9.65685425 6,8 C6,6.34314575 7.34314575,5 9,5 C10.6568542,5 12,6.34314575 12,8 C12,9.65685425 10.6568542,11 9,11 Z M9,9 C9.55228475,9 10,8.55228475 10,8 C10,7.44771525 9.55228475,7 9,7 C8.44771525,7 8,7.44771525 8,8 C8,8.55228475 8.44771525,9 9,9 Z" id="Combined-Shape" fill="#8D9095"></path>
    </g>
</svg>