<?xml version="1.0" encoding="utf-8"?>
<!-- Generator: Adobe Illustrator 23.0.1, SVG Export Plug-In . SVG Version: 6.00 Build 0)  -->
<svg version="1.1" id="Layer_1" xmlns="http://www.w3.org/2000/svg" xmlns:xlink="http://www.w3.org/1999/xlink" x="0px" y="0px"
	 viewBox="0 0 18 18" style="enable-background:new 0 0 18 18;" xml:space="preserve">
<path d="M7.1,13L8,15.7c0.1,0.5-0.1,1.1-0.6,1.3c-0.4,0.2-0.9-0.1-1.1-0.6l-1.1-3.4c-1.1,0-1.8-0.1-2-0.1c-1.2,0-2.2-1-2.2-2.2V6.3
	c0-1.2,1-2.2,2.2-2.2C5.5,4.1,7.6,4,7.6,4c1.6-0.1,2.4-0.4,3.4-0.9c0.2-0.1,2.2-1.4,3.1-1.9c0.6-0.3,1.3-0.3,1.9,0
	c0.6,0.3,1,1,1,1.7l0,11.1c0,0.7-0.4,1.3-1,1.7c-0.3,0.2-0.6,0.3-1,0.3c-0.3,0-0.7-0.1-0.9-0.2c-0.6-0.3-1.1-0.6-1.7-1
	c-0.2-0.1-0.6-0.4-0.6-0.4c-0.2-0.1-0.4-0.3-0.5-0.3c-0.8-0.5-1.6-0.8-2.9-0.9C7.9,13,7.5,13,7.1,13z M5,11V6c-0.5,0-1,0-1.7,0
	C3.1,6.1,3,6.2,3,6.4v4.3c0,0.2,0.1,0.3,0.3,0.3C3.6,10.9,4.1,11,5,11z M7,11.1c0.5,0,1,0,1.5,0.1c1.6,0.2,2.6,0.5,3.7,1.2
	c-0.2-0.1,1.8,1.3,2.7,1.7c0,0,0,0,0.1,0c0,0,0,0,0,0l0-10.9c0,0,0,0,0,0c0,0,0,0-0.1,0c-0.8,0.4-2.7,1.7-3,1.8
	c-1.2,0.7-2.3,1-4.1,1.1c0,0-0.2,0-0.8,0V11.1z"/>
</svg>
