<?xml version="1.0" encoding="utf-8"?>
<!-- Generator: Adobe Illustrator 21.0.2, SVG Export Plug-In . SVG Version: 6.00 Build 0)  -->
<svg version="1.1" id="Layer_1" xmlns="http://www.w3.org/2000/svg" xmlns:xlink="http://www.w3.org/1999/xlink" x="0px" y="0px"
	 viewBox="0 0 18 18" style="enable-background:new 0 0 18 18;" xml:space="preserve">
<style type="text/css">
	.st0{fill-rule:evenodd;clip-rule:evenodd;}
</style>
<path class="st0" d="M8.3,1.4l-5,5c-0.4,0.4-0.4,1,0,1.4c0.4,0.4,1,0.4,1.4,0L8,4.5V16c0,0.6,0.4,1,1,1s1-0.4,1-1V4.3l3.3,3.3
	c0.4,0.4,1,0.4,1.4,0C14.9,7.5,15,7.2,15,7c0-0.3-0.1-0.5-0.3-0.7l-5-5C9.3,0.9,8.7,0.9,8.3,1.4L8.3,1.4z"/>
</svg>
