<?xml version="1.0" encoding="utf-8"?>
<!-- Generator: Adobe Illustrator 21.0.2, SVG Export Plug-In . SVG Version: 6.00 Build 0)  -->
<svg version="1.1" id="Layer_1" xmlns="http://www.w3.org/2000/svg" xmlns:xlink="http://www.w3.org/1999/xlink" x="0px" y="0px"
	 viewBox="0 0 18 18" style="enable-background:new 0 0 18 18;" xml:space="preserve">
<style type="text/css">
	.st0{fill-rule:evenodd;clip-rule:evenodd;fill:#8D9095;}
</style>
<path class="st0" d="M0,17c0-0.6,0.4-1,1-1h16c0.5,0,1,0.4,1,1c0,0.6-0.4,1-1,1H1C0.4,18,0,17.6,0,17z"/>
<path class="st0" d="M6.9,9.3l0.1-0.2l7.2-7.3l2.1,2l-7.3,7.2l-0.2,0.1H6.9V9.3z M12.7,0.7L5.6,7.8C5.3,8.2,5,8.8,5,9.3v2.8
	C5,12.6,5.4,13,5.9,13h2.8c0.5,0,1.1-0.3,1.4-0.6l6.4-6.4l0.8-0.8c0.9-0.9,0.9-2.4,0-3.3L16,0.7C15.6,0.3,15,0,14.4,0
	C13.8,0,13.2,0.3,12.7,0.7z"/>
</svg>
