<?xml version="1.0" encoding="utf-8"?>
<!-- Generator: Adobe Illustrator 21.0.2, SVG Export Plug-In . SVG Version: 6.00 Build 0)  -->
<svg version="1.1" id="Layer_1" xmlns="http://www.w3.org/2000/svg" xmlns:xlink="http://www.w3.org/1999/xlink" x="0px" y="0px"
	 viewBox="0 0 18 18" style="enable-background:new 0 0 18 18;" xml:space="preserve">
<style type="text/css">
	.st0{fill:#8D9095;}
</style>
<path class="st0" d="M16.5,0.2c-0.3-0.2-0.7-0.2-1-0.1L1.6,6.6C1.2,6.7,1,7.1,1,7.5c0,0.4,0.3,0.8,0.6,0.9l5.3,2.2l-0.1,5.8
	c0,0.4,0.2,0.8,0.6,0.9c0.1,0.1,0.3,0.1,0.4,0.1c0.2,0,0.5-0.1,0.7-0.3l4.4-4.1l2.5,1c0.1,0.1,0.3,0.1,0.4,0.1
	c0.2,0,0.4-0.1,0.5-0.2c0.3-0.2,0.4-0.5,0.5-0.8L16.9,1C16.9,0.7,16.8,0.4,16.5,0.2z M11.8,4L7.6,8.7L4.5,7.4L11.8,4z M8.8,14
	l0.1-2.6l1.9,0.8L8.8,14z M9.6,9.5l5.3-6l-0.2,8.1L9.6,9.5z"/>
</svg>
