<?xml version="1.0" encoding="utf-8"?>
<!-- Generator: Adobe Illustrator 21.0.2, SVG Export Plug-In . SVG Version: 6.00 Build 0)  -->
<svg version="1.1" id="Layer_1" xmlns="http://www.w3.org/2000/svg" xmlns:xlink="http://www.w3.org/1999/xlink" x="0px" y="0px"
	 viewBox="0 0 18 18" style="enable-background:new 0 0 18 18;" xml:space="preserve">
<style type="text/css">
	.st0{fill:#231F20;}
</style>
<path class="st0" d="M12.6,4H9C8.4,4,8,3.5,8,3c0-0.6,0.4-1,1-1h6c0.6,0,1,0.4,1,1v6.1c0,0.3-0.1,0.5-0.3,0.7
	c-0.2,0.2-0.4,0.3-0.7,0.3c-0.6,0-1-0.4-1-1V5.4l-5,5c-0.4,0.4-1,0.4-1.4,0s-0.4-1,0-1.4L12.6,4z"/>
<path class="st0" d="M15,16H3c-0.6,0-1-0.4-1-1V3c0-0.6,0.4-1,1-1h2c0.6,0,1,0.4,1,1S5.6,4,5,4H4v10h10v-1c0-0.6,0.4-1,1-1
	s1,0.4,1,1v2C16,15.6,15.5,16,15,16z"/>
</svg>
