<?xml version="1.0" encoding="UTF-8"?>
<svg width="7px" height="10px" viewBox="0 0 7 10" version="1.1" xmlns="http://www.w3.org/2000/svg" xmlns:xlink="http://www.w3.org/1999/xlink">
    <!-- Generator: Sketch 52.5 (67469) - http://www.bohemiancoding.com/sketch -->
    <title>Path</title>
    <desc>Created with Sketch.</desc>
    <g id="Optimise-pending-stage-concepts" stroke="none" stroke-width="1" fill="none" fill-rule="evenodd">
        <path d="M3.00837375,9.0254834 C2.95830943,9.0254834 2.9082451,9.0254834 2.85818078,9.0254834 C2.65792348,8.92534203 2.50773051,8.72505928 2.50773051,8.52477653 L2.50773051,6.02124217 L0.50515754,6.02124217 C0.304900243,6.02124217 0.15470727,5.9211008 0.0545786215,5.77088874 C-0.0455500269,5.62067667 0.0045142973,5.42039393 0.104642946,5.27018186 L3.55908132,0.263113149 C3.65920997,0.0628304004 3.90953159,-0.0373109739 4.10978889,0.0127597133 C4.31004618,0.0628304004 4.46023916,0.263113149 4.46023916,0.513466585 L4.46023916,3.06707163 L6.51287645,3.06707163 C6.71313375,3.06707163 6.86332672,3.167213 6.96345537,3.31742506 C7.06358402,3.46763713 7.01351969,3.66791987 6.91339104,3.81813194 L3.40888835,8.77512996 C3.3087597,8.92534203 3.15856672,9.0254834 3.00837375,9.0254834 Z" id="Path" fill="#FFFFFF" fill-rule="nonzero"></path>
    </g>
</svg>