<?xml version="1.0" encoding="utf-8"?>
<!-- Generator: Adobe Illustrator 21.0.2, SVG Export Plug-In . SVG Version: 6.00 Build 0)  -->
<svg version="1.1" id="Layer_1" xmlns="http://www.w3.org/2000/svg" xmlns:xlink="http://www.w3.org/1999/xlink" x="0px" y="0px"
	 viewBox="0 0 18 18" style="enable-background:new 0 0 18 18;" xml:space="preserve">
<g>
	<path d="M8,18c-0.1,0-0.2,0-0.3,0C7.3,17.8,7,17.4,7,17v-5H3c-0.4,0-0.7-0.2-0.9-0.5s-0.1-0.7,0.1-1l6.9-10C9.3,0.1,9.8-0.1,10.2,0
		c0.4,0.1,0.7,0.5,0.7,1v5.1H15c0.4,0,0.7,0.2,0.9,0.5s0.1,0.7-0.1,1l-7,9.9C8.6,17.8,8.3,18,8,18z M4.9,10H8c0.6,0,1,0.4,1,1v2.8
		l4-5.8H9.9c-0.6,0-1-0.4-1-1V4.2L4.9,10z"/>
</g>
</svg>
