<?xml version="1.0" encoding="utf-8"?>
<!-- Generator: Adobe Illustrator 21.0.2, SVG Export Plug-In . SVG Version: 6.00 Build 0)  -->
<svg version="1.1" id="Layer_1" xmlns="http://www.w3.org/2000/svg" xmlns:xlink="http://www.w3.org/1999/xlink" x="0px" y="0px"
	 viewBox="0 0 18 18" style="enable-background:new 0 0 18 18;" xml:space="preserve">
<g>
	<path d="M14,18c-2.3,0-5.8-1.6-9.1-4.9c-2-2-3.6-4.3-4.4-6.4c-0.8-2.1-0.7-3.9,0.2-4.8C0.8,1.8,0.9,1.7,1,1.6C1.7,0.9,2.6,0,3.8,0
		c0.9,0,1.7,0.5,2.4,1.5c2.1,2.6,1.2,3.9,0,5.1l0,0c0.1,0.3,0.5,1.1,2.2,2.9c1.8,1.8,2.6,2.2,2.9,2.2l0,0c1.2-1.2,2.5-2.1,5.1,0
		c1,0.8,1.5,1.6,1.5,2.4c0.1,1.3-0.9,2.2-1.6,2.8c-0.1,0.1-0.2,0.2-0.3,0.3C15.6,17.7,14.9,18,14,18z M3.7,2C3.5,2,3.3,2.2,3.2,2.3
		C2.7,2.7,2.1,3.1,2,3.8C2,4.1,2,4.5,2.1,4.8c0.7,3,2.8,5.6,5.1,7.6c1.4,1.3,2.9,2.3,4.6,3c0.6,0.3,1.3,0.5,2,0.6
		c0.3,0,0.5,0,0.7-0.1c0.2-0.1,0.3-0.2,0.5-0.3c0.3-0.3,0.6-0.6,0.8-0.9c0.1-0.1,0.2-0.2,0.2-0.4c0-0.2-0.1-0.4-0.2-0.6
		c-0.4-0.5-0.9-0.9-1.4-1.2c-0.2-0.1-0.4-0.2-0.6-0.2c-0.5,0-0.8,0.6-1.1,0.9c-0.5,0.4-1.2,0.5-1.8,0.3c-0.6-0.2-1.1-0.6-1.6-1
		C7.5,11.5,5.9,10,4.8,8.2C4.6,7.8,4.3,7.4,4.2,7S4.2,6,4.4,5.7c0.3-0.5,1.1-0.8,1.1-1.4c0-0.3-0.1-0.5-0.3-0.7
		C5,3.1,4.7,2.7,4.4,2.4C4.2,2.2,4,2,3.7,2z"/>
</g>
</svg>
