<?xml version="1.0" encoding="UTF-8" standalone="no"?>
<svg width="48px" height="60px" viewBox="0 0 48 60" version="1.1" xmlns="http://www.w3.org/2000/svg" xmlns:xlink="http://www.w3.org/1999/xlink">
    <!-- Generator: Sketch Beta 40 (33734) - http://www.bohemiancoding.com/sketch -->
    <title>Slice 3</title>
    <desc>Created with Sketch Beta.</desc>
    <defs></defs>
    <g id="Page-1" stroke="none" stroke-width="1" fill="none" fill-rule="evenodd">
        <path d="M47.9343051,25.5003397 C47.9777831,25.5182179 48,25.5274551 48,25.5274551 C48,45.4845306 24.8401003,59.7689962 24.8401003,59.7689962 C24.3769827,60.0753098 23.6301271,60.075534 23.1738657,59.7783581 C23.1738657,59.7783581 0,45.4845306 0,25.5274551 C1.53712829e-17,25.2731115 0.00779630727,25.0252509 0.0231902012,24.7837494 C0.00778358739,24.4347562 0,24.0838066 0,23.7310594 C0,10.6247572 10.745166,5.68434189e-14 24,5.68434189e-14 C37.254834,5.68434189e-14 48,10.6247572 48,23.7310594 C48,24.3261903 47.9778447,24.9162046 47.9343051,25.5003397 Z" id="Combined-Shape" fill="#000000"></path>
    </g>
</svg>