<?xml version="1.0" encoding="UTF-8"?>
<svg width="16px" height="15px" viewBox="0 0 16 15" version="1.1" xmlns="http://www.w3.org/2000/svg" xmlns:xlink="http://www.w3.org/1999/xlink">
    <!-- Generator: Sketch 51.1 (57501) - http://www.bohemiancoding.com/sketch -->
    <title>Group 6</title>
    <desc>Created with Sketch.</desc>
    <defs>
        <polygon id="path-1" points="0 0.254864359 16 0.254864359 16 10.0688 0 10.0688"></polygon>
    </defs>
    <g id="Interactions" stroke="none" stroke-width="1" fill="none" fill-rule="evenodd">
        <g id="Temporary-region-interactions" transform="translate(-113.000000, -822.000000)">
            <g id="Group-3" transform="translate(105.000000, 819.000000)">
                <g id="Group-2">
                    <g id="Group-11" transform="translate(8.000000, 3.000000)">
                        <g id="Group-6">
                            <path d="M1.96728889,13.0784 L14.0321778,13.0784 C14.1370667,13.0784 14.2224,13.1752889 14.2224,13.2952889 L14.2224,14.6401778 C14.2224,14.7601778 14.1370667,14.8561778 14.0321778,14.8561778 L1.96728889,14.8561778 C1.8624,14.8561778 1.77795556,14.7601778 1.77795556,14.6401778 L1.77795556,13.2952889 C1.77795556,13.1752889 1.8624,13.0784 1.96728889,13.0784" id="Fill-1" fill="#FFFFFF"></path>
                            <g id="Group-5" transform="translate(0.000000, 0.634311)">
                                <mask id="mask-2" fill="white">
                                    <use xlink:href="#path-1"></use>
                                </mask>
                                <g id="Clip-4"></g>
                                <path d="M15.9608,5.04568889 C15.7945778,4.4048 15.1403556,4.02168889 14.5092444,4.19768889 L10.3199111,5.3328 L5.11635556,0.417244444 C4.96702222,0.275911111 4.75546667,0.221688889 4.55724444,0.275022222 L3.3528,0.597688889 L6.61946667,6.3328 L2.69857778,7.39768889 L1.38035556,6.35235556 C1.23102222,6.23502222 1.03635556,6.19502222 0.855022222,6.2448 L-8.88888889e-05,6.4768 L1.43635556,9.00568889 L2.04346667,10.0688 L3.30568889,9.72568889 L7.49502222,8.5888 L10.9270222,7.6608 L15.1163556,6.52568889 C15.7554667,6.34168889 16.1261333,5.68568889 15.9608,5.04568889" id="Fill-3" fill="#FFFFFF" mask="url(#mask-2)"></path>
                            </g>
                        </g>
                    </g>
                </g>
            </g>
        </g>
    </g>
</svg>