<?xml version="1.0" encoding="UTF-8"?>
<svg width="15px" height="15px" viewBox="0 0 15 15" version="1.1" xmlns="http://www.w3.org/2000/svg" xmlns:xlink="http://www.w3.org/1999/xlink">
    <!-- Generator: Sketch 51.1 (57501) - http://www.bohemiancoding.com/sketch -->
    <title>Group 7</title>
    <desc>Created with Sketch.</desc>
    <defs></defs>
    <g id="Interactions" stroke="none" stroke-width="1" fill="none" fill-rule="evenodd">
        <g id="Temporary-region-interactions" transform="translate(-113.000000, -1615.000000)" fill="#FFFFFF">
            <g id="Group-3-Copy-3" transform="translate(105.000000, 1611.000000)">
                <g id="Group-2">
                    <g id="Group-7" transform="translate(8.000000, 3.000000)">
                        <g id="Group-3" transform="translate(0.000000, 0.480500)">
                            <path d="M5.6149,9.4171 L9.1499,10.3331 L13.4649,11.4531 C14.1149,11.6191 14.7809,11.2481 14.9599,10.6171 C15.1309,9.9851 14.7489,9.3381 14.0979,9.1641 L9.7839,8.0431 L7.6409,1.2411 C7.5789,1.0431 7.4149,0.8901 7.2089,0.8371 L5.9729,0.5201 L5.9729,7.0571 L1.9339,6.0061 L1.2929,4.4531 C1.2209,4.2771 1.0679,4.1461 0.8809,4.0971 L-0.0001,3.8671 L-0.0001,7.9481 L1.2999,8.2881 L5.6149,9.4171 Z" id="Fill-1"></path>
                        </g>
                        <g id="Group-6" transform="translate(1.000000, 13.480500)">
                            <g id="Fill-4">
                                <g>
                                    <path d="M0.5119,0.2355 L12.4889,0.2355 C12.5929,0.2355 12.6769,0.3315 12.6769,0.4505 L12.6769,1.7855 C12.6769,1.9035 12.5929,2.0005 12.4889,2.0005 L0.5119,2.0005 C0.4079,2.0005 0.3239,1.9035 0.3239,1.7855 L0.3239,0.4505 C0.3239,0.3315 0.4079,0.2355 0.5119,0.2355"></path>
                                </g>
                            </g>
                        </g>
                    </g>
                </g>
            </g>
        </g>
    </g>
</svg>