<?xml version="1.0" encoding="utf-8"?>
<!-- Generator: Adobe Illustrator 21.0.2, SVG Export Plug-In . SVG Version: 6.00 Build 0)  -->
<svg version="1.1" id="Layer_1" xmlns="http://www.w3.org/2000/svg" xmlns:xlink="http://www.w3.org/1999/xlink" x="0px" y="0px"
	 viewBox="0 0 18 18" style="enable-background:new 0 0 18 18;" xml:space="preserve">
<style type="text/css">
	.st0{fill-rule:evenodd;clip-rule:evenodd;}
</style>
<path class="st0" d="M10,8V2c0-0.6-0.4-1-1-1C8.4,1,8,1.4,8,2v6H2C1.4,8,1,8.4,1,9c0,0.6,0.4,1,1,1h6v6c0,0.6,0.4,1,1,1
	c0.6,0,1-0.4,1-1v-6h6c0.6,0,1-0.4,1-1c0-0.6-0.4-1-1-1H10z"/>
</svg>
