<?xml version="1.0" encoding="UTF-8" standalone="no"?>
<svg width="18px" height="18px" viewBox="0 0 18 18" version="1.1" xmlns="http://www.w3.org/2000/svg" xmlns:xlink="http://www.w3.org/1999/xlink">
    <!-- Generator: Sketch Beta 39.1 (31721) - http://www.bohemiancoding.com/sketch -->
    <title>Slice</title>
    <desc>Created with Sketch Beta.</desc>
    <defs></defs>
    <g id="Page-1" stroke="none" stroke-width="1" fill="none" fill-rule="evenodd">
        <g id="Group-29" transform="translate(2.000000, 0.000000)" fill="#797E8E">
            <path d="M0,1.99508929 C0,0.893231902 0.897060126,0 2.00585866,0 L11.9941413,0 C13.1019465,0 14,0.892622799 14,1.99508929 L14,16.0049107 C14,17.1067681 13.1029399,18 11.9941413,18 L2.00585866,18 C0.898053512,18 0,17.1073772 0,16.0049107 L0,1.99508929 Z M2,2 L12,2 L12,5 L14,5 L14,10 L12,10 L12,16 L2,16 L2,2 Z M7,14 C7.55228475,14 8,13.5522847 8,13 C8,12.4477153 7.55228475,12 7,12 C6.44771525,12 6,12.4477153 6,13 C6,13.5522847 6.44771525,14 7,14 Z" id="Combined-Shape"></path>
        </g>
        <path d="M13.75,5.5 L14.5,5.5 L14.5,6.16666667 L14.5,8.83333333 L14.5,9.5 L13.5,9.5 L13.5,8.83333333 L13.5,6.5 L13,6.5 L12.5,6.5 L12.5,5.5 L13,5.5 L13.75,5.5 Z M13.5,12 C15.9852814,12 18,9.98528137 18,7.5 C18,5.01471863 15.9852814,3 13.5,3 C11.0147186,3 9,5.01471863 9,7.5 C9,9.98528137 11.0147186,12 13.5,12 Z M13.25,8.5 L12.75,8.5 L12.5,8.5 L12.5,9.5 L12.75,9.5 L13.25,9.5 L13.5,9.5 L13.5,8.5 L13.25,8.5 Z M15.25,8.5 L14.75,8.5 L14.5,8.5 L14.5,9.5 L14.75,9.5 L15.25,9.5 L15.5,9.5 L15.5,8.5 L15.25,8.5 Z" id="Combined-Shape" fill="#797E8E"></path>
    </g>
</svg>