<?xml version="1.0" encoding="UTF-8"?>
<svg width="18px" height="18px" viewBox="0 0 18 18" version="1.1" xmlns="http://www.w3.org/2000/svg" xmlns:xlink="http://www.w3.org/1999/xlink">
    <!-- Generator: Sketch 42 (36781) - http://www.bohemiancoding.com/sketch -->
    <title>Slice 3</title>
    <desc>Created with Sketch.</desc>
    <defs></defs>
    <g id="Symbols" stroke="none" stroke-width="1" fill="none" fill-rule="evenodd">
        <path d="M2.97237027,8.56684814 C2.47961828,8.45384048 2.14294281,7.98238769 2.20798479,7.47091946 L2.92838496,1.86367069 C2.99825286,1.31977609 3.49294332,0.937064849 4.03735626,1.00859728 C4.58037754,1.07995588 4.96392923,1.57730931 4.895621,2.11998537 L4.57741641,4.57370923 C5.81234132,3.56570712 7.36261524,3 9,3 C12.8659932,3 16,6.13400675 16,10 C16,13.8659932 12.8659932,17 9,17 C5.89745658,17 3.19165088,14.9637438 2.30214751,12.0398569 C2.14140545,11.5114816 2.43943106,10.9528417 2.96780634,10.7920996 C3.49618162,10.6313576 4.0548216,10.9293832 4.21556366,11.4577584 C4.85056915,13.5450852 6.78388022,15 9,15 C11.7614237,15 14,12.7614237 14,10 C14,7.23857625 11.7614237,5 9,5 C7.91863435,5 6.89317705,5.34387985 6.0476577,5.96398116 C5.90755939,6.07732168 5.75285776,6.20476704 5.59282234,6.3405672 C5.56830218,6.36341536 5.54398597,6.38652814 5.51987766,6.40990338 C5.47645379,6.45200685 5.43019238,6.48938208 5.38173078,6.5220389 C5.20277527,6.6779921 5.02224899,6.84100793 4.85243639,7.00346609 C6.27917664,7.35836905 8.2610748,7.87848779 8.2610748,7.87848779 C8.79442556,7.99996806 9.08258309,8.64140647 8.96395382,9.17614932 C8.84501201,9.71225951 8.31618729,10.046222 7.78115803,9.9257906 L3.26527138,8.68430518 C3.15917659,8.66028229 3.06086922,8.62006647 2.97237027,8.56684814 Z" id="Combined-Shape" fill="#8D9095" fill-rule="nonzero"></path>
    </g>
</svg>