<?xml version="1.0" encoding="UTF-8"?>
<svg width="8px" height="8px" viewBox="0 0 8 8" version="1.1" xmlns="http://www.w3.org/2000/svg" xmlns:xlink="http://www.w3.org/1999/xlink">
    <!-- Generator: Sketch 53.2 (72643) - https://sketchapp.com -->
    <title>remove</title>
    <desc>Created with Sketch.</desc>
    <g id="Page-1" stroke="none" stroke-width="1" fill="none" fill-rule="evenodd">
        <g id="remove" fill="#9AA2B2" fill-rule="nonzero">
            <path d="M6.94801223,0 C7.23615358,0 7.48352022,0.102040816 7.69011213,0.306122449 C7.89670404,0.510204082 8,0.756462585 8,1.04489796 C8,1.33333333 7.89670404,1.58095238 7.69011213,1.7877551 L5.47196738,4.00816327 L7.69011213,6.22040816 C7.89670404,6.42721088 8,6.67210884 8,6.95510204 C8,7.24353741 7.89670404,7.48979592 7.69011213,7.69387755 C7.48352022,7.89795918 7.23615358,8 6.94801223,8 C6.65987088,8 6.41522256,7.89931973 6.21406728,7.69795918 L3.99592253,5.48571429 L1.78593272,7.69795918 C1.58477744,7.89931973 1.33741081,8 1.04383282,8 C0.755691471,8 0.509683996,7.89931973 0.305810398,7.69795918 C0.101936799,7.49659864 0,7.25170068 0,6.96326531 C0,6.66938776 0.100577642,6.42176871 0.301732926,6.22040816 L2.51987768,4.00816327 L0.301732926,1.7877551 C0.100577642,1.58639456 0,1.3414966 0,1.05306122 C0,0.76462585 0.101936799,0.517006803 0.305810398,0.310204082 C0.509683996,0.103401361 0.755691471,0 1.04383282,0 C1.33197418,0 1.57934081,0.103401361 1.78593272,0.310204082 L3.99592253,2.53061224 L6.21406728,0.310204082 C6.42065919,0.103401361 6.66530751,0 6.94801223,0 L6.94801223,0 Z" id="path-1"></path>
        </g>
    </g>
</svg>