<?xml version="1.0" encoding="utf-8"?>
<!-- Generator: Adobe Illustrator 21.0.2, SVG Export Plug-In . SVG Version: 6.00 Build 0)  -->
<svg version="1.1" id="Layer_1" xmlns="http://www.w3.org/2000/svg" xmlns:xlink="http://www.w3.org/1999/xlink" x="0px" y="0px"
	 viewBox="0 0 18 18" style="enable-background:new 0 0 18 18;" xml:space="preserve">
<style type="text/css">
	.st0{fill-rule:evenodd;clip-rule:evenodd;}
</style>
<path class="st0" d="M5.3,12.4c-0.4,0.3-0.4,0.9,0,1.3l3.1,3c0.4,0.4,0.9,0.4,1.3,0l3.1-3c0.4-0.4,0.4-0.9,0-1.3l-0.1-0.1
	c-0.4-0.3-0.9-0.4-1.3,0L9,14.7l-2.4-2.4C6.3,12,5.7,12,5.3,12.4L5.3,12.4z M12.7,5.6c0.4-0.3,0.4-0.9,0-1.3l-3.1-3
	c-0.4-0.4-0.9-0.4-1.3,0l-3.1,3c-0.4,0.4-0.4,0.9,0,1.3l0.1,0.1C5.7,6,6.2,6,6.6,5.6L9,3.3l2.4,2.4C11.7,6,12.3,6,12.7,5.6L12.7,5.6
	z"/>
</svg>
