<?xml version="1.0" encoding="utf-8"?>
<!-- Generator: Adobe Illustrator 21.0.2, SVG Export Plug-In . SVG Version: 6.00 Build 0)  -->
<svg version="1.1" id="Layer_1" xmlns="http://www.w3.org/2000/svg" xmlns:xlink="http://www.w3.org/1999/xlink" x="0px" y="0px"
	 viewBox="0 0 18 18" style="enable-background:new 0 0 18 18;" xml:space="preserve">
<path d="M8.9,2.1c1,0,2,0.2,2,2.5s-1,2.5-2,2.5s-2-0.2-2-2.5S7.8,2.1,8.9,2.1 M8.9,0.1c-2.2,0-4,1.2-4,4.5s1.8,4.5,4,4.5
	s4-1.2,4-4.5C12.9,1.2,11.1,0.1,8.9,0.1L8.9,0.1z"/>
<path d="M13.2,10.3l-3,3c-0.4,0.4-0.4,1,0,1.4c0.4,0.4,1,0.4,1.4,0l1.3-1.3V17c0,0.6,0.4,1,1,1s1-0.4,1-1v-3.7l1.4,1.4
	c0.4,0.4,1,0.4,1.4,0c0.2-0.2,0.3-0.5,0.3-0.7s-0.1-0.5-0.3-0.7l-3-3C14.3,9.9,13.7,9.9,13.2,10.3L13.2,10.3z"/>
<path d="M7.8,16C7.8,16,7.8,16,7.8,16C7.8,16,7.8,16,7.8,16C5,16,3,15.9,2,15.7c0.3-0.9,1-1.5,2-1.9c0.1-0.1,0.3-0.1,0.4-0.2
	c0.9-0.3,1.8-0.5,2.8-0.6c0.1,0,0.2,0,0.4,0c0.2,0,0.3-0.1,0.5-0.1c0.1-0.1,0.3-0.2,0.4-0.4c0.1-0.1,0.1-0.3,0.1-0.5
	c0-0.6-0.4-1-1-1c-1.9,0.2-3.3,0.6-4.2,0.9c-2,0.7-2.9,2.2-3.3,3.6c-0.2,0.8,0.1,1.6,0.7,1.9c0.6,0.3,3.7,0.5,7,0.5c0,0,0,0,0,0
	c0,0,0,0,0,0c0.6,0,1-0.4,1-1C8.8,16.4,8.3,16,7.8,16z"/>
</svg>
