<?xml version="1.0" encoding="utf-8"?>
<!-- Generator: Adobe Illustrator 21.0.2, SVG Export Plug-In . SVG Version: 6.00 Build 0)  -->
<svg version="1.1" id="sketch_file" xmlns="http://www.w3.org/2000/svg" xmlns:xlink="http://www.w3.org/1999/xlink" x="0px"
	 y="0px" viewBox="0 0 18 18" style="enable-background:new 0 0 18 18;" xml:space="preserve">
<style type="text/css">
	.st0{fill-rule:evenodd;clip-rule:evenodd;}
</style>
<path d="M9,2.1c1,0,2,0.2,2,2.5s-1,2.5-2,2.5S7,6.9,7,4.6S7.9,2.1,9,2.1 M9,0.1c-2.2,0-4,1.2-4,4.5c0,3.3,1.8,4.5,4,4.5
	c2.2,0,4-1.2,4-4.5C13,1.2,11.2,0.1,9,0.1L9,0.1z"/>
<path class="st0" d="M9,11c-2.6,0-4.5,0.6-5.6,1c-2,0.7-2.9,2.2-3.3,3.6c-0.2,0.8,0.1,1.6,0.7,1.9C1.5,17.8,5.2,18,9,18h0
	c0,0,0,0,0,0c0.6,0,1-0.4,1-1c0-0.6-0.4-1-1-1v0h0c-3.4,0-5.8-0.1-6.9-0.3c0.3-0.9,1-1.5,2-1.9C5.1,13.4,6.8,13,9,13c0,0,0,0,0,0
	c0,0,0,0,0,0c0.6,0,1-0.4,1-1C10,11.4,9.6,11,9,11L9,11L9,11C9,11,9,11,9,11"/>
<path class="st0" d="M16.2,12.1l-1.4,1.4l-1.4-1.4c-0.4-0.4-1-0.4-1.4,0c-0.4,0.4-0.4,1,0,1.4l1.4,1.4L12,16.3c-0.4,0.4-0.4,1,0,1.4
	c0.4,0.4,1,0.4,1.4,0l1.4-1.4l1.4,1.4c0.4,0.4,1,0.4,1.4,0c0.4-0.4,0.4-1,0-1.4l-1.4-1.4l1.4-1.4c0.4-0.4,0.4-1,0-1.4
	C17.3,11.7,16.6,11.7,16.2,12.1"/>
</svg>
