<?xml version="1.0" encoding="utf-8"?>
<!-- Generator: Adobe Illustrator 21.0.2, SVG Export Plug-In . SVG Version: 6.00 Build 0)  -->
<svg version="1.1" id="Layer_1" xmlns="http://www.w3.org/2000/svg" xmlns:xlink="http://www.w3.org/1999/xlink" x="0px" y="0px"
	 viewBox="0 0 18 18" style="enable-background:new 0 0 18 18;" xml:space="preserve">
<path d="M9,0C4,0,0,4,0,9c0,5,4,9,9,9s9-4,9-9C18,4,14,0,9,0z M9,16c-3.9,0-7-3.1-7-7s3.1-7,7-7c2.1,0,4,0.9,5.2,2.4L9.4,9.5
	L7.7,7.7c-0.4-0.4-1-0.4-1.4,0c-0.4,0.4-0.4,1.1,0,1.5l2.4,2.5c0,0,0,0,0,0c0.4,0.4,1,0.4,1.4,0l0,0c0,0,0,0,0,0v0l5.3-5.6
	C15.8,7,16,8,16,9C16,12.9,12.9,16,9,16z"/>
</svg>
