<?xml version="1.0" encoding="utf-8"?>
<!-- Generator: Adobe Illustrator 21.0.2, SVG Export Plug-In . SVG Version: 6.00 Build 0)  -->
<svg version="1.1" id="Layer_1" xmlns="http://www.w3.org/2000/svg" xmlns:xlink="http://www.w3.org/1999/xlink" x="0px" y="0px"
	 viewBox="0 0 18 18" style="enable-background:new 0 0 18 18;" xml:space="preserve">
<path d="M7.5,4.1c0.6-0.6,1.4-1,2.3-1c1.2,0,2.2,0.7,2.8,1.6c0.5-0.2,1-0.3,1.6-0.3c2.1,0,3.9,1.8,3.9,3.9c0,2.2-1.7,3.9-3.9,3.9
	c-0.3,0-0.5,0-0.8-0.1c-0.5,0.9-1.4,1.5-2.5,1.5c-0.4,0-0.9-0.1-1.2-0.3c-0.5,1.2-1.6,2-3,2c-1.4,0-2.6-0.9-3-2.1
	c-0.2,0-0.4,0.1-0.6,0.1c-1.7,0-3-1.4-3-3c0-1.1,0.6-2.1,1.5-2.6C1.3,7.2,1.2,6.7,1.2,6.2c0-1.9,1.6-3.5,3.5-3.5
	C5.8,2.7,6.9,3.2,7.5,4.1"/>
</svg>
