<?xml version="1.0" encoding="utf-8"?>
<!-- Generator: Adobe Illustrator 21.1.0, SVG Export Plug-In . SVG Version: 6.00 Build 0)  -->
<svg version="1.1" id="Layer_1" xmlns="http://www.w3.org/2000/svg" xmlns:xlink="http://www.w3.org/1999/xlink" x="0px" y="0px"
	 viewBox="0 0 18 18" style="enable-background:new 0 0 18 18;" xml:space="preserve">
<title>availability</title>
<g>
	<path d="M12.7,6V4.4h3.8c0.5,0,0.9-0.4,0.9-0.9S17,2.6,16.5,2.6h-3.8V1c0-0.6-0.5-1-1-1H1C0.5,0,0,0.5,0,1V6c0,0.6,0.5,1,1,1h10.7
		C12.2,7,12.7,6.5,12.7,6z M10.8,5.1H1.9V1.9h8.9V5.1z"/>
	<path d="M17,11H8.4c-0.6,0-1,0.5-1,1v1.5H3c-0.5,0-0.9,0.4-0.9,0.9s0.4,0.9,0.9,0.9h4.4V17c0,0.6,0.5,1,1,1H17c0.6,0,1-0.5,1-1V12
		C18,11.5,17.5,11,17,11z M16.1,16.1H9.3v-3.3h6.8V16.1z"/>
</g>
</svg>
