<?xml version="1.0" encoding="utf-8"?>
<!-- Generator: Adobe Illustrator 21.0.2, SVG Export Plug-In . SVG Version: 6.00 Build 0)  -->
<svg version="1.1" id="Layer_1" xmlns="http://www.w3.org/2000/svg" xmlns:xlink="http://www.w3.org/1999/xlink" x="0px" y="0px"
	 viewBox="0 0 18 18" style="enable-background:new 0 0 18 18;" xml:space="preserve">
<style type="text/css">
	.st0{fill-rule:evenodd;clip-rule:evenodd;}
</style>
<path class="st0" d="M8,13c2.8,0,5-2.2,5-5s-2.2-5-5-5S3,5.2,3,8S5.2,13,8,13z M13.6,12.2l3,3c0.4,0.4,0.4,1,0,1.4l0,0
	c-0.4,0.4-1,0.4-1.4,0l-3-3C11,14.5,9.6,15,8,15c-3.9,0-7-3.1-7-7s3.1-7,7-7s7,3.1,7,7C15,9.6,14.5,11,13.6,12.2z"/>
</svg>
