<?xml version="1.0" encoding="UTF-8"?>
<svg width="18px" height="18px" viewBox="0 0 18 18" version="1.1" xmlns="http://www.w3.org/2000/svg" xmlns:xlink="http://www.w3.org/1999/xlink">
    <!-- Generator: Sketch 47.1 (45422) - http://www.bohemiancoding.com/sketch -->
    <title>settings</title>
    <desc>Created with Sketch.</desc>
    <defs></defs>
    <g id="Page-1" stroke="none" stroke-width="1" fill="none" fill-rule="evenodd">
        <g id="settings" fill="#8D9095">
            <g id="Page-1">
                <path d="M9,18 C7.7,18 6.6,17.1 6.2,15.9 C6.2,15.9 6.1,15.9 6.1,15.8 C5,16.4 3.6,16.3 2.7,15.4 C1.8,14.5 1.6,13 2.2,11.9 L2.2,11.8 C0.9,11.4 0,10.3 0,9 C0,7.7 0.9,6.5 2.1,6.2 C2.1,6.2 2.1,6.1 2.2,6.1 C1.6,5 1.7,3.5 2.6,2.6 C3.6,1.7 5,1.5 6.1,2.1 L6.2,2.1 C6.6,0.8 7.7,0 9,0 C10.3,0 11.5,0.9 11.8,2.2 L11.9,2.2 C12.3,1.9 12.8,1.8 13.3,1.8 C14.1,1.8 14.8,2.1 15.3,2.6 C15.8,3.1 16.1,3.9 16.1,4.6 C16.1,5.1 16,5.6 15.7,6 L15.7,6.1 C17.1,6.5 18,7.6 18,9 C18,10.3 17.1,11.4 15.9,11.8 L15.9,11.9 C16.5,13 16.4,14.4 15.4,15.4 C14.5,16.3 13,16.5 11.9,15.8 L11.8,15.8 C11.5,17 10.3,18 9,18 M6,13.6 C6.2,13.6 6.3,13.6 6.5,13.7 C6.8,13.9 7.1,14 7.5,14.1 C7.9,14.2 8.2,14.6 8.2,15 C8.2,15.5 8.6,15.9 9.1,15.9 C9.6,15.9 10,15.5 10,15 L10,14.9 C10,14.5 10.3,14.1 10.7,14 C11,13.9 11.3,13.8 11.6,13.6 C12,13.4 12.4,13.5 12.7,13.8 L12.8,13.9 C13.2,14.2 13.7,14.2 14,13.9 C14.3,13.6 14.4,13 14,12.7 C13.7,12.4 13.6,11.9 13.8,11.5 C14,11.2 14.1,10.9 14.2,10.6 C14.3,10.2 14.7,9.9 15.1,9.9 C15.6,9.9 16,9.5 16,9 C16,8.5 15.6,8.1 15.1,8.1 C14.7,8.1 14.3,7.8 14.2,7.4 C14.1,7.1 14,6.7 13.8,6.4 C13.6,6 13.7,5.5 14,5.2 C14.2,5 14.2,4.8 14.2,4.6 C14.2,4.4 14.1,4.1 14,4 C13.8,3.8 13.6,3.7 13.4,3.7 C13.2,3.7 13,3.8 12.8,3.9 C12.5,4.2 12,4.3 11.6,4.1 C11.3,3.9 11,3.8 10.7,3.7 C10.3,3.6 10,3.2 10,2.8 C10,2.3 9.6,1.9 9.1,1.9 C8.6,1.9 8.2,2.3 8.2,2.8 C8.2,3.2 7.9,3.6 7.5,3.7 C7.1,3.8 6.8,4 6.5,4.1 C6.1,4.3 5.6,4.3 5.3,4 C5,3.7 4.4,3.7 4,4 C3.7,4.3 3.7,4.9 4,5.2 C4.3,5.5 4.4,6 4.2,6.4 C4,6.7 3.9,7 3.8,7.4 C3.7,7.8 3.3,8.1 2.8,8.1 C2.4,8.1 2,8.5 2,9 C2,9.5 2.4,9.9 2.8,9.9 C3.3,9.9 3.7,10.2 3.8,10.6 C3.9,10.9 4,11.3 4.2,11.6 C4.4,12 4.3,12.5 4,12.8 C3.7,13.1 3.7,13.7 4,14.1 C4.3,14.4 4.9,14.4 5.2,14.1 C5.5,13.7 5.7,13.6 6,13.6" id="Fill-1"></path>
                <path d="M9,10.9531 C7.9,10.9531 7,10.0541 7,8.9531 C7,7.8531 7.9,6.9531 9,6.9531 C9.4,6.9531 9.8,7.0541 10.2,7.3531 C10.4,7.4531 10.6,7.6531 10.7,7.8531 C11.6,9.3531 10.4,10.9531 9,10.9531 M12.4,6.8531 C12.1,6.3531 11.7,5.9531 11.2,5.6531 C10.5,5.2531 9.7,4.9531 9,4.9531 C6.8,4.9531 5,6.7531 5,8.9531 C5,11.1531 6.8,12.9531 8.9,12.9531 C10.3,12.9531 11.7,12.1531 12.4,10.9531 C13.2,9.6531 13.1,8.1531 12.4,6.8531" id="Fill-3"></path>
            </g>
        </g>
    </g>
</svg>