<?xml version="1.0" encoding="utf-8"?>
<!-- Generator: Adobe Illustrator 21.1.0, SVG Export Plug-In . SVG Version: 6.00 Build 0)  -->
<svg version="1.1" id="Layer_1" xmlns="http://www.w3.org/2000/svg" xmlns:xlink="http://www.w3.org/1999/xlink" x="0px" y="0px"
	 viewBox="0 0 18 18" style="enable-background:new 0 0 18 18;" xml:space="preserve">
<title>availability</title>
<g>
	<g>
		<path d="M16,2v3H2V2H16 M17,0H1C0.4,0,0,0.4,0,1V6c0,0.5,0.4,1,1,1H17c0.5,0,1-0.4,1-1V1C18,0.4,17.6,0,17,0L17,0z"/>
	</g>
	<g>
		<path d="M16,13v3H2v-3H16 M17,11H1c-0.5,0-1,0.4-1,1V17c0,0.5,0.4,1,1,1H17c0.5,0,1-0.4,1-1V12C18,11.4,17.6,11,17,11L17,11z"/>
	</g>
</g>
</svg>
