<?xml version="1.0" encoding="UTF-8" standalone="no"?>
<svg width="30px" height="30px" viewBox="0 0 30 30" version="1.1" xmlns="http://www.w3.org/2000/svg" xmlns:xlink="http://www.w3.org/1999/xlink">
    <!-- Generator: Sketch Beta 39.1 (31721) - http://www.bohemiancoding.com/sketch -->
    <title>Slice 2</title>
    <desc>Created with Sketch Beta.</desc>
    <defs></defs>
    <g id="Page-1" stroke="none" stroke-width="1" fill="none" fill-rule="evenodd">
        <path d="M0,3.9992748 C0,1.79053632 1.78679466,0 3.9992748,0 L26.0007252,0 C28.2094637,0 30,1.78679466 30,3.9992748 L30,26.0007252 C30,28.2094637 28.2132053,30 26.0007252,30 L3.9992748,30 C1.79053632,30 0,28.2132053 0,26.0007252 L0,3.9992748 Z M9.21,24.75 C9.21,24.75 5.25,24.75 5.25,20.8058401 C5.25,20.8058401 15.5266992,20.80584 15.5266992,20.80584 C15.5266992,20.80584 24.7666992,20.80584 24.7666992,20.80584 C24.7666992,20.80584 24.7666992,24.7499999 20.8066992,24.7499999 C16.8466992,24.7499999 9.21,24.75 9.21,24.75 Z M9.21,16.97208 C9.21,16.97208 5.25,16.97208 5.25,13.0279201 C5.25,13.0279201 15.5266992,13.02792 15.5266992,13.02792 C15.5266992,13.02792 16.8633984,13.02792 20.8066992,13.02792 C24.75,13.02792 24.75,16.9720799 24.75,16.97208 C24.75,16.97208 20.8066992,16.97208 20.8066992,16.9720799 C20.8066992,16.9720798 9.21,16.97208 9.21,16.97208 Z M20.7947034,5.24999989 C20.7947034,5.24999989 24.7516498,5.24999989 24.7516498,9.19415977 C24.7516498,9.19415977 14.482875,9.19415989 14.482875,9.19415989 C14.482875,9.19415989 5.25,9.19415987 5.25,9.19415989 C5.25,9.19415991 5.25,5.25 9.20694642,5.25 C13.1638928,5.25 20.7947034,5.24999989 20.7947034,5.24999989 Z" id="Rectangle-1" fill="#FFFFFF"></path>
    </g>
</svg>