<?xml version="1.0" encoding="utf-8"?>
<!-- Generator: Adobe Illustrator 21.0.2, SVG Export Plug-In . SVG Version: 6.00 Build 0)  -->
<svg version="1.1" id="Layer_1" xmlns="http://www.w3.org/2000/svg" xmlns:xlink="http://www.w3.org/1999/xlink" x="0px" y="0px"
	 viewBox="0 0 18 18" style="enable-background:new 0 0 18 18;" xml:space="preserve">
<style type="text/css">
	.st0{fill-rule:evenodd;clip-rule:evenodd;}
</style>
<path class="st0" d="M12,9.4V15c0,0.5,0.4,1,1,1c0.6,0,1-0.5,1-1V9.4l1.3,1.3c0.4,0.4,1,0.4,1.4,0c0.4-0.4,0.4-1,0-1.4l-2.8-2.8
	c-0.1-0.1-0.1-0.1-0.2-0.2C13.5,6.1,13.3,6,13,6c-0.3,0-0.5,0.1-0.7,0.3c-0.1,0-0.1,0.1-0.2,0.1L9.3,9.3c-0.4,0.4-0.4,1,0,1.4
	c0.4,0.4,1,0.4,1.4,0L12,9.4z"/>
<path class="st0" d="M1,9c0-0.6,0.5-1,1-1h4c0.5,0,1,0.4,1,1c0,0.6-0.5,1-1,1H2C1.4,10,1,9.6,1,9z M1,3c0-0.6,0.4-1,1-1h14
	c0.6,0,1,0.4,1,1c0,0.6-0.4,1-1,1H2C1.4,4,1,3.6,1,3z M1,15c0-0.6,0.4-1,1-1h2c0.6,0,1,0.4,1,1c0,0.6-0.4,1-1,1H2
	C1.5,16,1,15.6,1,15z"/>
</svg>
