<?xml version="1.0" encoding="UTF-8" standalone="no"?>
<svg width="18px" height="18px" viewBox="0 0 18 18" version="1.1" xmlns="http://www.w3.org/2000/svg" xmlns:xlink="http://www.w3.org/1999/xlink">
    <!-- Generator: Sketch Beta 39.1 (31721) - http://www.bohemiancoding.com/sketch -->
    <title>Slice</title>
    <desc>Created with Sketch Beta.</desc>
    <defs></defs>
    <g id="Page-1" stroke="none" stroke-width="1" fill="none" fill-rule="evenodd">
        <g id="Suggest" transform="translate(3.000000, 0.000000)" fill="#797E8E">
            <path d="M7,9.87398251 C8.72522721,9.42993972 10,7.86383943 10,6 C10,3.790861 8.209139,2 6,2 C3.790861,2 2,3.790861 2,6 C2,7.86383943 3.27477279,9.42993972 5,9.87398251 L5,12 L7,12 L7,9.87398251 Z M9,11.1973068 L9,13.0001925 C9,13.5523709 8.54902482,14 8.00922203,14 L3.99077797,14 C3.44358641,14 3,13.5490248 3,13.009222 L3,11.1973068 C1.20659589,10.1598786 0,8.22084707 0,6 C0,2.6862915 2.6862915,0 6,0 C9.3137085,0 12,2.6862915 12,6 C12,8.22084707 10.7934041,10.1598786 9,11.1973068 Z M3,16 L9,16 L9,17 C9,17.5522847 8.54902482,18 8.00922203,18 L3.99077797,18 C3.44358641,18 3,17.5561352 3,17 L3,16 Z" id="Combined-Shape"></path>
        </g>
    </g>
</svg>