<?xml version="1.0" encoding="UTF-8"?>
<svg width="18px" height="18px" viewBox="0 0 18 18" version="1.1" xmlns="http://www.w3.org/2000/svg" xmlns:xlink="http://www.w3.org/1999/xlink">
    <!-- Generator: Sketch 42 (36781) - http://www.bohemiancoding.com/sketch -->
    <title>Slice</title>
    <desc>Created with Sketch.</desc>
    <defs></defs>
    <g id="Symbols" stroke="none" stroke-width="1" fill="none" fill-rule="evenodd">
        <g id="icon/vertical_swimlane" transform="translate(9.000000, 9.000000) rotate(-270.000000) translate(-9.000000, -9.000000) translate(0.000000, 3.000000)" fill="#8D9095">
            <g id="Group-4">
                <path d="M13,1 C13,0.44771525 13.4437166,4.4408921e-16 13.9998075,4.4408921e-16 L17.0001925,4.4408921e-16 C17.5523709,4.4408921e-16 18,0.443864822 18,1 C18,1.55228475 17.5562834,2 17.0001925,2 L13.9998075,2 C13.4476291,2 13,1.55613518 13,1 Z M0,1 C0,0.44771525 0.443353176,4.4408921e-16 1.0093689,4.4408921e-16 L2.9906311,4.4408921e-16 C3.54809015,4.4408921e-16 4,0.443864822 4,1 C4,1.55228475 3.55664682,2 2.9906311,2 L1.0093689,2 C0.451909848,2 0,1.55613518 0,1 Z" id="Combined-Shape"></path>
            </g>
            <g id="Group-2" transform="translate(9.000000, 11.000000) rotate(180.000000) translate(-9.000000, -11.000000) translate(-0.000000, 10.000000)">
                <g id="Group-3" transform="translate(0.000000, 0.000000)">
                    <path d="M13,1 C13,0.44771525 13.4437166,0 13.9998075,0 L17.0001925,0 C17.5523709,0 18,0.443864822 18,1 C18,1.55228475 17.5562834,2 17.0001925,2 L13.9998075,2 C13.4476291,2 13,1.55613518 13,1 Z M0,1 C0,0.44771525 0.443353176,-1.77635684e-15 1.0093689,-1.77635684e-15 L2.9906311,-1.77635684e-15 C3.54809015,-1.77635684e-15 4,0.443864822 4,1 C4,1.55228475 3.55664682,2 2.9906311,2 L1.0093689,2 C0.451909848,2 0,1.55613518 0,1 Z" id="Combined-Shape"></path>
                </g>
            </g>
        </g>
        <path d="M1,5.00247329 C1,4.44882258 1.45097518,4 1.99077797,4 L6.00922203,4 C6.55641359,4 7,4.45576096 7,5.00247329 L7,14.9975267 C7,15.5511774 6.54902482,16 6.00922203,16 L1.99077797,16 C1.44358641,16 1,15.544239 1,14.9975267 L1,5.00247329 Z M3,6 L3,14 L5,14 L5,6 L3,6 Z" id="Combined-Shape" fill="#8D9095"></path>
        <path d="M11,3.00247329 C11,2.44882258 11.4509752,2 11.990778,2 L16.009222,2 C16.5564136,2 17,2.45576096 17,3.00247329 L17,12.9975267 C17,13.5511774 16.5490248,14 16.009222,14 L11.990778,14 C11.4435864,14 11,13.544239 11,12.9975267 L11,3.00247329 Z M13,4 L13,12 L15,12 L15,4 L13,4 Z" id="Combined-Shape" fill="#8D9095"></path>
    </g>
</svg>