<?xml version="1.0" encoding="UTF-8"?>
<svg width="18px" height="18px" viewBox="0 0 18 18" version="1.1" xmlns="http://www.w3.org/2000/svg" xmlns:xlink="http://www.w3.org/1999/xlink">
    <!-- Generator: Sketch 42 (36781) - http://www.bohemiancoding.com/sketch -->
    <title>Slice</title>
    <desc>Created with Sketch.</desc>
    <defs></defs>
    <g id="Symbols" stroke="none" stroke-width="1" fill="none" fill-rule="evenodd">
        <g id="icon/swimlane" transform="translate(0.000000, 1.000000)" fill="#8D9095">
            <g id="Group-4" transform="translate(0.000000, 2.000000)">
                <path d="M13,1 C13,0.44771525 13.4437166,4.4408921e-16 13.9998075,4.4408921e-16 L17.0001925,4.4408921e-16 C17.5523709,4.4408921e-16 18,0.443864822 18,1 C18,1.55228475 17.5562834,2 17.0001925,2 L13.9998075,2 C13.4476291,2 13,1.55613518 13,1 Z M0,1 C0,0.44771525 0.443353176,4.4408921e-16 1.0093689,4.4408921e-16 L2.9906311,4.4408921e-16 C3.54809015,4.4408921e-16 4,0.443864822 4,1 C4,1.55228475 3.55664682,2 2.9906311,2 L1.0093689,2 C0.451909848,2 0,1.55613518 0,1 Z" id="Combined-Shape"></path>
            </g>
            <g id="Group-2" transform="translate(9.000000, 8.000000) rotate(180.000000) translate(-9.000000, -8.000000) translate(0.000000, 0.000000)">
                <path d="M13,3 C13,2.44771525 13.4437166,2 13.9998075,2 L17.0001925,2 C17.5523709,2 18,2.44386482 18,3 C18,3.55228475 17.5562834,4 17.0001925,4 L13.9998075,4 C13.4476291,4 13,3.55613518 13,3 Z M-3.55271368e-15,3 C-3.55271368e-15,2.44771525 0.443353176,2 1.0093689,2 L2.9906311,2 C3.54809015,2 4,2.44386482 4,3 C4,3.55228475 3.55664682,4 2.9906311,4 L1.0093689,4 C0.451909848,4 -3.55271368e-15,3.55613518 -3.55271368e-15,3 Z" id="Combined-Shape"></path>
                <path d="M2,0.990777969 C2,0.443586406 2.45576096,7.10542736e-15 3.00247329,7.10542736e-15 L12.9975267,7.10542736e-15 C13.5511774,7.10542736e-15 14,0.45097518 14,0.990777969 L14,5.00922203 C14,5.55641359 13.544239,6 12.9975267,6 L3.00247329,6 C2.44882258,6 2,5.54902482 2,5.00922203 L2,0.990777969 Z M12,2 L4,2 L4,4 L12,4 L12,2 Z" id="Combined-Shape" fill-rule="nonzero"></path>
                <path d="M4,10.990778 C4,10.4435864 4.45576096,10 5.00247329,10 L14.9975267,10 C15.5511774,10 16,10.4509752 16,10.990778 L16,15.009222 C16,15.5564136 15.544239,16 14.9975267,16 L5.00247329,16 C4.44882258,16 4,15.5490248 4,15.009222 L4,10.990778 Z M14,12 L6,12 L6,14 L14,14 L14,12 Z" id="Combined-Shape" fill-rule="nonzero"></path>
            </g>
        </g>
    </g>
</svg>