<?xml version="1.0" encoding="utf-8"?>
<!-- Generator: Adobe Illustrator 21.0.2, SVG Export Plug-In . SVG Version: 6.00 Build 0)  -->
<svg version="1.1" id="Layer_1" xmlns="http://www.w3.org/2000/svg" xmlns:xlink="http://www.w3.org/1999/xlink" x="0px" y="0px"
	 viewBox="0 0 18 18" style="enable-background:new 0 0 18 18;" xml:space="preserve">
<style type="text/css">
	.st0{fill-rule:evenodd;clip-rule:evenodd;}
</style>
<path class="st0" d="M8.4,11.7l-3.1-3c-0.4-0.4-0.4-1,0-1.4c0.4-0.4,1-0.4,1.4,0l2.4,2.3l7.2-7.3c0.4-0.4,1-0.4,1.4,0
	c0.4,0.4,0.4,1,0,1.4l-7.9,8C9.6,11.9,9.3,12,9.1,12C8.8,12,8.6,11.9,8.4,11.7z"/>
<path d="M9,18c-5,0-9-4-9-9c0-5,4-9,9-9c1.2,0,2.3,0.2,3.4,0.7c0.5,0.2,0.8,0.8,0.6,1.3c-0.2,0.5-0.8,0.8-1.3,0.6
	C10.8,2.2,9.9,2,9,2C5.1,2,2,5.1,2,9c0,3.9,3.1,7,7,7c3.9,0,7-3.1,7-7c0-0.6,0.4-1,1-1s1,0.4,1,1C18,14,14,18,9,18z"/>
</svg>
