<?xml version="1.0" encoding="utf-8"?>
<!-- Generator: Adobe Illustrator 21.0.2, SVG Export Plug-In . SVG Version: 6.00 Build 0)  -->
<svg version="1.1" id="Layer_1" xmlns="http://www.w3.org/2000/svg" xmlns:xlink="http://www.w3.org/1999/xlink" x="0px" y="0px"
	 viewBox="0 0 18 18" style="enable-background:new 0 0 18 18;" xml:space="preserve">
<style type="text/css">
	.st0{fill-rule:evenodd;clip-rule:evenodd;}
</style>
<path class="st0" d="M13.7,5.3c-0.4-0.4-1-0.4-1.4,0l-4.9,5.2L5.7,8.7c-0.4-0.4-1-0.4-1.4,0c-0.4,0.4-0.4,1.1,0,1.5l2.4,2.5
	c0,0,0,0,0,0c0.4,0.4,1,0.4,1.4,0l0,0c0,0,0,0,0,0v0l5.6-5.9C14.1,6.4,14.1,5.7,13.7,5.3"/>
<path d="M9,2c3.9,0,7,3.1,7,7s-3.1,7-7,7s-7-3.1-7-7S5.1,2,9,2 M9,0C4,0,0,4,0,9s4,9,9,9s9-4,9-9S14,0,9,0L9,0z"/>
</svg>
