<?xml version="1.0" encoding="utf-8"?>
<!-- Generator: Adobe Illustrator 21.0.2, SVG Export Plug-In . SVG Version: 6.00 Build 0)  -->
<svg version="1.1" id="Layer_1" xmlns="http://www.w3.org/2000/svg" xmlns:xlink="http://www.w3.org/1999/xlink" x="0px" y="0px"
	 viewBox="0 0 18 18" style="enable-background:new 0 0 18 18;" xml:space="preserve">
<path d="M9,18c-5,0-9-4-9-9c0-5,4-9,9-9c5,0,9,4,9,9C18,14,14,18,9,18z M9,2C5.1,2,2,5.1,2,9c0,3.9,3.1,7,7,7c3.9,0,7-3.1,7-7
	C16,5.1,12.9,2,9,2z"/>
<path d="M9,6"/>
<path d="M12,9h-2V6c0-0.6-0.4-1-1-1S8,5.4,8,6v4c0,0.6,0.4,1,1,1h3c0.6,0,1-0.4,1-1C13,9.4,12.6,9,12,9z"/>
</svg>
