<?xml version="1.0" encoding="utf-8"?>
<!-- Generator: Adobe Illustrator 21.0.2, SVG Export Plug-In . SVG Version: 6.00 Build 0)  -->
<svg version="1.1" id="Layer_1" xmlns="http://www.w3.org/2000/svg" xmlns:xlink="http://www.w3.org/1999/xlink" x="0px" y="0px"
	 viewBox="0 0 18 18" style="enable-background:new 0 0 18 18;" xml:space="preserve">
<path d="M7,14c-0.6,0-1-0.4-1-1V8.4c0-0.6,0.4-1,1-1s1,0.4,1,1V13C8,13.5,7.5,14,7,14z"/>
<path d="M11,14c-0.6,0-1-0.4-1-1V8.4c0-0.6,0.4-1,1-1s1,0.4,1,1V13C12,13.5,11.6,14,11,14z"/>
<path d="M17,3.4h-4c0,0,0,0,0-0.1V1.7C13,0.8,12.1,0,11.1,0H6.8C5.8,0,5,0.8,5,1.7v1.6c0,0,0,0,0,0.1H1c-0.6,0-1,0.4-1,1s0.4,1,1,1
	h1V16c0,1.1,0.9,2,2,2H14c1.1,0,2-0.9,2-2V5.4h1c0.6,0,1-0.4,1-1S17.5,3.4,17,3.4z M7,3.3V2l4,0v1.3c0,0,0,0,0,0.1L7,3.3
	C7,3.4,7,3.3,7,3.3z M14,16H4V5.4H14V16z"/>
</svg>
