<?xml version="1.0" encoding="utf-8"?>
<!-- Generator: Adobe Illustrator 21.0.2, SVG Export Plug-In . SVG Version: 6.00 Build 0)  -->
<svg version="1.1" id="Layer_1" xmlns="http://www.w3.org/2000/svg" xmlns:xlink="http://www.w3.org/1999/xlink" x="0px" y="0px"
	 viewBox="0 0 18 18" style="enable-background:new 0 0 18 18;" xml:space="preserve">
<path d="M14,7h-2.6v0H6V3.8C6,2.9,6.9,2.1,7.9,2C7.9,2,9,2,9,2c0.1,0,1.1,0,1.2,0c1,0.1,1.8,0.9,1.8,1.8v0c0,0,0,0,0,0
	c0,0.6,0.4,1,1,1c0.6,0,1-0.4,1-1c0,0,0,0,0,0h0v0c0-2-1.8-3.7-3.9-3.8C10.1,0,9,0,9,0c0,0-1.1,0-1.1,0C5.8,0.1,4,1.8,4,3.8V7
	C2.9,7,2,7.9,2,9v7c0,1.1,0.9,2,2,2h10c1.1,0,2-0.9,2-2V9C16,7.9,15.1,7,14,7z M14,16H4V9h10V16z"/>
</svg>
