<?xml version="1.0" encoding="utf-8"?>
<!-- Generator: Adobe Illustrator 21.0.2, SVG Export Plug-In . SVG Version: 6.00 Build 0)  -->
<svg version="1.1" id="Layer_1" xmlns="http://www.w3.org/2000/svg" xmlns:xlink="http://www.w3.org/1999/xlink" x="0px" y="0px"
	 viewBox="0 0 20 20" style="enable-background:new 0 0 20 20;" xml:space="preserve">
<style type="text/css">
	.st0{fill:#8D9095;}
</style>
<path class="st0" d="M7,14.1c-0.2,0-0.5-0.1-0.7-0.3c-0.4-0.4-0.4-0.9,0-1.3l2.4-2.4L6.3,7.6C6,7.3,6,6.7,6.3,6.3
	C6.5,6.2,6.7,6.1,7,6.1c0.3,0,0.5,0.1,0.7,0.3l2.4,2.4l2.4-2.4c0.4-0.4,0.9-0.4,1.3,0c0.4,0.4,0.4,0.9,0,1.3l-2.4,2.4l2.4,2.4
	c0.4,0.4,0.4,0.9,0,1.3c-0.2,0.2-0.4,0.3-0.7,0.3c0,0,0,0,0,0c-0.2,0-0.5-0.1-0.7-0.3l-2.4-2.4l-2.4,2.4C7.5,14,7.2,14.1,7,14.1
	C7,14.1,7,14.1,7,14.1z"/>
<path class="st0" d="M10,20c-1.5,0-3-0.3-4.4-1c-2.4-1.2-4.2-3.2-5.1-5.7C-1.2,8,1.5,2.3,6.7,0.5c5.2-1.8,10.9,1,12.7,6.2
	c1.8,5.2-1,10.9-6.2,12.7l0,0C12.2,19.8,11.1,20,10,20z M12.9,18.5L12.9,18.5L12.9,18.5z M10,2C9.1,2,8.3,2.1,7.4,2.4
	c-4.2,1.4-6.4,6-5,10.2c0.7,2,2.1,3.6,4.1,4.6c1.9,0.9,4.1,1.1,6.1,0.4c4.2-1.4,6.4-6,5-10.2C16.4,4.1,13.3,2,10,2z"/>
</svg>
