<?xml version="1.0" encoding="UTF-8" standalone="no"?>
<svg width="10px" height="18px" viewBox="0 0 10 18" version="1.1" xmlns="http://www.w3.org/2000/svg" xmlns:xlink="http://www.w3.org/1999/xlink">
    <!-- Generator: Sketch Beta 40 (33734) - http://www.bohemiancoding.com/sketch -->
    <title>Slice 11</title>
    <desc>Created with Sketch Beta.</desc>
    <defs></defs>
    <g id="Page-1" stroke="none" stroke-width="1" fill="none" fill-rule="evenodd">
        <path d="M8.74818914,5.57757178 C9.10122662,5.22949983 9.09992902,4.66388436 8.74089535,4.30990056 L5.65231403,1.26476075 C5.29524829,0.912717214 4.71829829,0.910776954 4.35926462,1.26476075 L1.2706833,4.30990056 C0.913617563,4.6619441 0.908617118,5.22778933 1.26338951,5.57757178 L1.32624321,5.63954142 C1.67928069,5.98761337 2.24605009,5.99315182 2.61024678,5.63407763 L5.00578932,3.27222886 L7.40133187,5.63407763 C7.75742997,5.98516714 8.33056305,5.98932387 8.68533544,5.63954142 L8.74818914,5.57757178 Z M1.26338951,12.4302063 C0.910352023,12.7782783 0.911649623,13.3438938 1.2706833,13.6978776 L4.35926462,16.7430174 C4.71633035,17.0950609 5.29328035,17.0970012 5.65231403,16.7430174 L8.74089535,13.6978776 C9.09796108,13.345834 9.10296153,12.7799888 8.74818914,12.4302063 L8.68533544,12.3682367 C8.33229795,12.0201647 7.76552856,12.0146263 7.40133187,12.3737005 L5.00578932,14.7355492 L2.61024678,12.3737005 C2.25414867,12.022611 1.6810156,12.0184542 1.32624321,12.3682367 L1.26338951,12.4302063 Z" id="Shape" fill="#797E8E"></path>
    </g>
</svg>