<?xml version="1.0" encoding="utf-8"?>
<!-- Generator: Adobe Illustrator 21.0.2, SVG Export Plug-In . SVG Version: 6.00 Build 0)  -->
<svg version="1.1" id="Layer_1" xmlns="http://www.w3.org/2000/svg" xmlns:xlink="http://www.w3.org/1999/xlink" x="0px" y="0px"
	 viewBox="0 0 18 18" style="enable-background:new 0 0 18 18;" xml:space="preserve">
<style type="text/css">
	.st0{fill:#040015;}
</style>
<path class="st0" d="M11.2,1.9C9,1.9,7,2.9,5.7,4.6C2.6,4.5,0,7,0,10.1c0,3,2.4,5.4,5.4,5.4c2.7,0,5-2,5.4-4.6l0.2,0.2
	c0.2,0.2,0.5,0.3,0.7,0.3c0.3,0,0.5-0.1,0.7-0.3c0.4-0.4,0.4-1,0-1.4l-1.9-1.9c-0.2-0.2-0.4-0.3-0.7-0.3c0,0,0,0,0,0
	c-0.3,0-0.5,0.1-0.7,0.3L7.2,9.6c-0.4,0.4-0.4,1,0,1.4s1,0.4,1.4,0l0.1-0.1c-0.4,1.5-1.7,2.6-3.3,2.6C3.5,13.5,2,12,2,10.1
	s1.5-3.4,3.4-3.4c0.2,0,0.4,0,0.6,0.1c0.4,0.1,0.8-0.1,1-0.5c0.9-1.5,2.4-2.3,4.1-2.3C13.8,3.9,16,6,16,8.7c0,2.4-1.7,4.4-4,4.8
	c-0.5,0.1-0.9,0.6-0.8,1.1c0.1,0.5,0.6,0.9,1.1,0.8c3.3-0.5,5.7-3.4,5.7-6.7C18,4.9,14.9,1.9,11.2,1.9z"/>
</svg>
