<?xml version="1.0" encoding="utf-8"?>
<!-- Generator: Adobe Illustrator 21.0.2, SVG Export Plug-In . SVG Version: 6.00 Build 0)  -->
<svg version="1.1" id="Layer_2" xmlns="http://www.w3.org/2000/svg" xmlns:xlink="http://www.w3.org/1999/xlink" x="0px" y="0px"
	 viewBox="0 0 18 18" style="enable-background:new 0 0 18 18;" xml:space="preserve">
<path d="M9.2,3.9c3.3,0,6,3.5,6.7,4.9c-0.7,1.4-3.4,5.1-6.7,5.1c-3.6,0-6.3-3.7-7.1-5.2C2.8,7.3,5.6,3.9,9.2,3.9 M9.2,1.9
	C3.7,1.9,0,7.8,0,8.7c0,0.7,3.6,7.1,9.2,7.1c5.2,0,8.8-6.4,8.8-7.1C18,8,14.5,1.9,9.2,1.9L9.2,1.9z"/>
<path d="M9,7.9c0.6,0,1,0.4,1,1s-0.4,1-1,1s-1-0.4-1-1S8.4,7.9,9,7.9 M9,5.9c-1.7,0-3,1.3-3,3s1.3,3,3,3s3-1.3,3-3S10.6,5.9,9,5.9
	L9,5.9z"/>
</svg>
