<?xml version="1.0" encoding="utf-8"?>
<!-- Generator: Adobe Illustrator 21.0.2, SVG Export Plug-In . SVG Version: 6.00 Build 0)  -->
<svg version="1.1" id="Layer_1" xmlns="http://www.w3.org/2000/svg" xmlns:xlink="http://www.w3.org/1999/xlink" x="0px" y="0px"
	 viewBox="0 0 18 18" style="enable-background:new 0 0 18 18;" xml:space="preserve">
<style type="text/css">
	.st0{fill-rule:evenodd;clip-rule:evenodd;}
</style>
<g>
	<circle class="st0" cx="9" cy="13" r="1"/>
	<path class="st0" d="M9,6.2c-0.6,0-1,0.4-1,1v3c0,0.6,0.4,1,1,1c0.6,0,1-0.4,1-1v-3C10,6.6,9.6,6.2,9,6.2z"/>
</g>
<path d="M9,3.1l6.4,12H2.6L9,3.1 M9,1C8.3,1,7.6,1.4,7.2,2.1L0.1,15.4C0,15.6,0,15.8,0,15.9C0,16.5,0.5,17,1,17h16
	c0.2,0,0.3,0,0.5-0.1c0.5-0.3,0.7-0.9,0.4-1.5L10.8,2.1c-0.2-0.3-0.4-0.6-0.8-0.8C9.7,1.1,9.3,1,9,1L9,1z"/>
</svg>
