<?xml version="1.0" encoding="utf-8"?>
<!-- Generator: Adobe Illustrator 21.0.2, SVG Export Plug-In . SVG Version: 6.00 Build 0)  -->
<svg version="1.1" id="Layer_1" xmlns="http://www.w3.org/2000/svg" xmlns:xlink="http://www.w3.org/1999/xlink" x="0px" y="0px"
	 viewBox="0 0 18 18" style="enable-background:new 0 0 18 18;" xml:space="preserve">
<path d="M10,8V4.8c0-0.6-0.4-1-1-1c-0.6,0-1,0.4-1,1V8L4.8,8c-0.6,0-1,0.4-1,1s0.4,1,1,1H8v3.3c0,0.6,0.4,1,1,1
	c0.3,0,0.5-0.1,0.7-0.3c0.2-0.2,0.3-0.4,0.3-0.7V10h3.3c0.3,0,0.6-0.1,0.7-0.3c0.1-0.1,0.3-0.4,0.3-0.7c0-0.6-0.4-1-1-1H10z"/>
</svg>
